IntelOneMono-BoldItalic-quadratic.ufo
<glyph name="exclam" format="2">
  <advance width="614"/>
  <unicode hex="0021"/>
  <outline>
    <contour>
      <point x="367" y="277" type="line"/>
      <point x="269" y="277" type="line"/>
      <point x="311" y="710" type="line"/>
      <point x="576" y="710" type="line"/>
    </contour>
    <contour>
      <point x="126" y="46" type="qcurve"/>
      <point x="126" y="102"/>
      <point x="200" y="161"/>
      <point x="272" y="161" type="qcurve"/>
      <point x="328" y="161"/>
      <point x="380" y="132"/>
      <point x="380" y="100" type="qcurve"/>
      <point x="380" y="44"/>
      <point x="306" y="-15"/>
      <point x="234" y="-15" type="qcurve"/>
      <point x="178" y="-15"/>
      <point x="126" y="14"/>
    </contour>
  </outline>
</glyph>
<glyph name="numbersign" format="2">
  <advance width="614"/>
  <unicode hex="0023"/>
  <outline>
    <contour>
      <point x="129" y="140" type="line"/>
      <point x="41" y="140" type="line"/>
      <point x="41" y="279" type="line"/>
      <point x="181" y="279" type="line"/>
      <point x="220" y="382" type="line"/>
      <point x="115" y="382" type="line"/>
      <point x="115" y="521" type="line"/>
      <point x="273" y="521" type="line"/>
      <point x="328" y="666" type="line"/>
      <point x="418" y="666" type="line"/>
      <point x="363" y="521" type="line"/>
      <point x="453" y="521" type="line"/>
      <point x="508" y="666" type="line"/>
      <point x="598" y="666" type="line"/>
      <point x="543" y="521" type="line"/>
      <point x="629" y="521" type="line"/>
      <point x="629" y="382" type="line"/>
      <point x="490" y="382" type="line"/>
      <point x="451" y="279" type="line"/>
      <point x="555" y="279" type="line"/>
      <point x="555" y="140" type="line"/>
      <point x="398" y="140" type="line"/>
      <point x="340" y="-12" type="line"/>
      <point x="250" y="-12" type="line"/>
      <point x="308" y="140" type="line"/>
      <point x="218" y="140" type="line"/>
      <point x="160" y="-12" type="line"/>
      <point x="71" y="-12" type="line"/>
    </contour>
    <contour>
      <point x="230" y="221" type="line"/>
      <point x="356" y="221" type="line"/>
      <point x="439" y="438" type="line"/>
      <point x="313" y="438" type="line"/>
    </contour>
  </outline>
</glyph>
<glyph name="dollar" format="2">
  <advance width="614"/>
  <unicode hex="0024"/>
  <outline>
    <contour>
      <point x="246" y="2" type="qcurve"/>
      <point x="196" y="-142" type="line"/>
      <point x="105" y="-142" type="line"/>
      <point x="160" y="14" type="line"/>
      <point x="121" y="22"/>
      <point x="46" y="43"/>
      <point x="10" y="56" type="qcurve"/>
      <point x="50" y="175" type="line"/>
      <point x="137" y="145"/>
      <point x="261" y="119"/>
      <point x="310" y="119" type="qcurve"/>
      <point x="359" y="119"/>
      <point x="404" y="146"/>
      <point x="404" y="177" type="qcurve"/>
      <point x="404" y="203"/>
      <point x="369" y="237"/>
      <point x="320" y="262" type="qcurve"/>
      <point x="268" y="289" type="line"/>
      <point x="196" y="327"/>
      <point x="137" y="406"/>
      <point x="137" y="465" type="qcurve"/>
      <point x="137" y="551"/>
      <point x="273" y="655"/>
      <point x="390" y="655" type="qcurve"/>
      <point x="406" y="655"/>
      <point x="422" y="655"/>
      <point x="428" y="654" type="qcurve"/>
      <point x="479" y="797" type="line"/>
      <point x="570" y="797" type="line"/>
      <point x="516" y="643" type="line"/>
      <point x="540" y="638"/>
      <point x="592" y="625"/>
      <point x="627" y="614" type="qcurve"/>
      <point x="591" y="497" type="line"/>
      <point x="524" y="518"/>
      <point x="426" y="537"/>
      <point x="387" y="537" type="qcurve"/>
      <point x="335" y="537"/>
      <point x="284" y="506"/>
      <point x="284" y="473" type="qcurve"/>
      <point x="284" y="452"/>
      <point x="315" y="421"/>
      <point x="351" y="402" type="qcurve"/>
      <point x="403" y="375" type="line"/>
      <point x="493" y="328"/>
      <point x="552" y="255"/>
      <point x="552" y="192" type="qcurve"/>
      <point x="552" y="102"/>
      <point x="425" y="-1"/>
      <point x="312" y="-1" type="qcurve"/>
      <point x="296" y="-1"/>
      <point x="262" y="0"/>
    </contour>
  </outline>
</glyph>
<glyph name="percent" format="2">
  <advance width="614"/>
  <unicode hex="0025"/>
  <outline>
    <contour>
      <point x="423" y="555" type="qcurve"/>
      <point x="423" y="458"/>
      <point x="315" y="319"/>
      <point x="230" y="319" type="qcurve"/>
      <point x="168" y="319"/>
      <point x="104" y="378"/>
      <point x="104" y="434" type="qcurve"/>
      <point x="104" y="531"/>
      <point x="212" y="670"/>
      <point x="297" y="670" type="qcurve"/>
      <point x="359" y="670"/>
      <point x="423" y="611"/>
    </contour>
    <contour>
      <point x="720" y="654" type="line"/>
      <point x="452" y="378" type="line"/>
      <point x="400" y="378" type="line"/>
      <point x="591" y="660" type="line"/>
      <point x="721" y="660" type="line"/>
    </contour>
    <contour>
      <point x="338" y="544" type="qcurve"/>
      <point x="338" y="570"/>
      <point x="315" y="595"/>
      <point x="291" y="595" type="qcurve"/>
      <point x="248" y="595"/>
      <point x="189" y="501"/>
      <point x="189" y="445" type="qcurve"/>
      <point x="189" y="419"/>
      <point x="212" y="394"/>
      <point x="236" y="394" type="qcurve"/>
      <point x="279" y="394"/>
      <point x="338" y="488"/>
    </contour>
    <contour>
      <point x="562" y="221" type="qcurve"/>
      <point x="562" y="124"/>
      <point x="454" y="-15"/>
      <point x="369" y="-15" type="qcurve"/>
      <point x="307" y="-15"/>
      <point x="243" y="44"/>
      <point x="243" y="100" type="qcurve"/>
      <point x="243" y="197"/>
      <point x="351" y="336"/>
      <point x="436" y="336" type="qcurve"/>
      <point x="498" y="336"/>
      <point x="562" y="277"/>
    </contour>
    <contour>
      <point x="-54" y="1" type="line"/>
      <point x="213" y="277" type="line"/>
      <point x="265" y="277" type="line"/>
      <point x="75" y="-5" type="line"/>
      <point x="-55" y="-5" type="line"/>
    </contour>
    <contour>
      <point x="477" y="210" type="qcurve"/>
      <point x="477" y="236"/>
      <point x="454" y="261"/>
      <point x="430" y="261" type="qcurve"/>
      <point x="387" y="261"/>
      <point x="328" y="167"/>
      <point x="328" y="111" type="qcurve"/>
      <point x="328" y="85"/>
      <point x="351" y="60"/>
      <point x="375" y="60" type="qcurve"/>
      <point x="418" y="60"/>
      <point x="477" y="154"/>
    </contour>
  </outline>
</glyph>
<glyph name="quotesingle" format="2">
  <advance width="614"/>
  <unicode hex="0027"/>
  <outline>
    <contour>
      <point x="258" y="359" type="line"/>
      <point x="406" y="359" type="line"/>
      <point x="524" y="710" type="line"/>
      <point x="342" y="710" type="line"/>
    </contour>
  </outline>
</glyph>
<glyph name="parenleft" format="2">
  <advance width="614"/>
  <unicode hex="0028"/>
  <outline>
    <contour>
      <point x="111" y="234" type="qcurve"/>
      <point x="111" y="400"/>
      <point x="369" y="693"/>
      <point x="620" y="809" type="qcurve"/>
      <point x="693" y="713" type="line"/>
      <point x="468" y="603"/>
      <point x="257" y="376"/>
      <point x="257" y="235" type="qcurve"/>
      <point x="257" y="158"/>
      <point x="367" y="4"/>
      <point x="470" y="-60" type="qcurve"/>
      <point x="380" y="-151" type="line"/>
      <point x="245" y="-64"/>
      <point x="111" y="127"/>
    </contour>
  </outline>
</glyph>
<glyph name="parenright" format="2">
  <advance width="614"/>
  <unicode hex="0029"/>
  <outline>
    <contour>
      <point x="556" y="424" type="qcurve"/>
      <point x="556" y="258"/>
      <point x="298" y="-35"/>
      <point x="47" y="-151" type="qcurve"/>
      <point x="-26" y="-55" type="line"/>
      <point x="199" y="55"/>
      <point x="410" y="282"/>
      <point x="410" y="423" type="qcurve"/>
      <point x="410" y="500"/>
      <point x="300" y="654"/>
      <point x="197" y="718" type="qcurve"/>
      <point x="287" y="809" type="line"/>
      <point x="422" y="722"/>
      <point x="556" y="531"/>
    </contour>
  </outline>
</glyph>
<glyph name="period" format="2">
  <advance width="614"/>
  <unicode hex="002E"/>
  <outline>
    <contour>
      <point x="397" y="123" type="qcurve"/>
      <point x="397" y="59"/>
      <point x="322" y="-15"/>
      <point x="254" y="-15" type="qcurve"/>
      <point x="195" y="-15"/>
      <point x="136" y="26"/>
      <point x="136" y="67" type="qcurve"/>
      <point x="136" y="127"/>
      <point x="211" y="202"/>
      <point x="277" y="202" type="qcurve"/>
      <point x="338" y="202"/>
      <point x="397" y="163"/>
    </contour>
  </outline>
</glyph>
<glyph name="zero" format="2">
  <advance width="614"/>
  <unicode hex="0030"/>
  <outline>
    <contour>
      <point x="226" y="596" type="qcurve"/>
      <point x="261" y="631"/>
      <point x="355" y="670"/>
      <point x="406" y="670" type="qcurve"/>
      <point x="506" y="670"/>
      <point x="606" y="583"/>
      <point x="606" y="496" type="qcurve"/>
      <point x="606" y="386"/>
      <point x="505" y="124"/>
      <point x="440" y="59" type="qcurve"/>
      <point x="405" y="24"/>
      <point x="311" y="-15"/>
      <point x="260" y="-15" type="qcurve"/>
      <point x="160" y="-15"/>
      <point x="60" y="72"/>
      <point x="60" y="159" type="qcurve"/>
      <point x="60" y="269"/>
      <point x="161" y="531"/>
    </contour>
    <contour>
      <point x="398" y="544" type="qcurve"/>
      <point x="372" y="544"/>
      <point x="331" y="528"/>
      <point x="314" y="511" type="qcurve"/>
      <point x="287" y="484"/>
      <point x="232" y="364"/>
      <point x="214" y="296" type="qcurve"/>
      <point x="470" y="468" type="line"/>
      <point x="470" y="471" type="line"/>
      <point x="470" y="510"/>
      <point x="437" y="544"/>
    </contour>
    <contour>
      <point x="196" y="184" type="line"/>
      <point x="196" y="145"/>
      <point x="229" y="110"/>
      <point x="268" y="110" type="qcurve"/>
      <point x="294" y="110"/>
      <point x="335" y="127"/>
      <point x="352" y="144" type="qcurve"/>
      <point x="378" y="170"/>
      <point x="433" y="288"/>
      <point x="451" y="356" type="qcurve"/>
      <point x="196" y="186" type="line"/>
    </contour>
  </outline>
</glyph>
<glyph name="five" format="2">
  <advance width="614"/>
  <unicode hex="0035"/>
  <outline>
    <contour>
      <point x="388" y="423" type="qcurve"/>
      <point x="464" y="423"/>
      <point x="549" y="348"/>
      <point x="549" y="282" type="qcurve"/>
      <point x="549" y="154"/>
      <point x="343" y="18"/>
      <point x="126" y="0" type="qcurve"/>
      <point x="7" y="-10" type="line"/>
      <point x="29" y="116" type="line"/>
      <point x="151" y="127" type="line"/>
      <point x="271" y="138"/>
      <point x="400" y="208"/>
      <point x="400" y="259" type="qcurve"/>
      <point x="400" y="286"/>
      <point x="363" y="314"/>
      <point x="326" y="314" type="qcurve"/>
      <point x="304" y="314"/>
      <point x="240" y="295"/>
      <point x="203" y="277" type="qcurve"/>
      <point x="106" y="297" type="line"/>
      <point x="105" y="302" type="line"/>
      <point x="227" y="655" type="line"/>
      <point x="620" y="655" type="line"/>
      <point x="585" y="535" type="line"/>
      <point x="312" y="535" type="line"/>
      <point x="262" y="397" type="line"/>
      <point x="292" y="411"/>
      <point x="351" y="423"/>
    </contour>
  </outline>
</glyph>
<glyph name="eight" format="2">
  <advance width="614"/>
  <unicode hex="0038"/>
  <outline>
    <contour>
      <point x="537" y="185" type="qcurve"/>
      <point x="537" y="99"/>
      <point x="391" y="-15"/>
      <point x="281" y="-15" type="qcurve"/>
      <point x="172" y="-15"/>
      <point x="39" y="80"/>
      <point x="39" y="158" type="qcurve"/>
      <point x="39" y="230"/>
      <point x="144" y="332"/>
      <point x="232" y="346" type="qcurve"/>
      <point x="232" y="351" type="line"/>
      <point x="191" y="371"/>
      <point x="148" y="434"/>
      <point x="148" y="474" type="qcurve"/>
      <point x="148" y="553"/>
      <point x="281" y="670"/>
      <point x="383" y="670" type="qcurve"/>
      <point x="488" y="670"/>
      <point x="611" y="578"/>
      <point x="611" y="504" type="qcurve"/>
      <point x="611" y="434"/>
      <point x="520" y="339"/>
      <point x="440" y="326" type="qcurve"/>
      <point x="440" y="321" type="line"/>
      <point x="486" y="299"/>
      <point x="537" y="228"/>
    </contour>
    <contour>
      <point x="388" y="560" type="qcurve"/>
      <point x="342" y="560"/>
      <point x="277" y="495"/>
      <point x="277" y="448" type="qcurve"/>
      <point x="277" y="415"/>
      <point x="321" y="378"/>
      <point x="360" y="378" type="qcurve"/>
      <point x="407" y="378"/>
      <point x="471" y="442"/>
      <point x="471" y="488" type="qcurve"/>
      <point x="471" y="522"/>
      <point x="427" y="560"/>
    </contour>
    <contour>
      <point x="304" y="289" type="qcurve"/>
      <point x="250" y="289"/>
      <point x="181" y="223"/>
      <point x="181" y="174" type="qcurve"/>
      <point x="181" y="137"/>
      <point x="234" y="94"/>
      <point x="279" y="94" type="qcurve"/>
      <point x="332" y="94"/>
      <point x="406" y="163"/>
      <point x="406" y="213" type="qcurve"/>
      <point x="406" y="247"/>
      <point x="350" y="289"/>
    </contour>
  </outline>
</glyph>
<glyph name="nine" format="2">
  <advance width="614"/>
  <unicode hex="0039"/>
  <outline>
    <contour>
      <point x="61" y="2" type="line"/>
      <point x="218" y="131" type="line"/>
      <point x="244" y="152"/>
      <point x="290" y="193"/>
      <point x="310" y="211" type="qcurve"/>
      <point x="202" y="241"/>
      <point x="109" y="329"/>
      <point x="109" y="408" type="qcurve"/>
      <point x="109" y="516"/>
      <point x="272" y="670"/>
      <point x="396" y="670" type="qcurve"/>
      <point x="500" y="670"/>
      <point x="617" y="569"/>
      <point x="617" y="480" type="qcurve"/>
      <point x="617" y="384"/>
      <point x="502" y="214"/>
      <point x="364" y="98" type="qcurve"/>
      <point x="247" y="0" type="line"/>
      <point x="61" y="0" type="line"/>
    </contour>
    <contour>
      <point x="384" y="553" type="qcurve"/>
      <point x="329" y="553"/>
      <point x="257" y="474"/>
      <point x="257" y="418" type="qcurve"/>
      <point x="257" y="368"/>
      <point x="318" y="314"/>
      <point x="391" y="294" type="qcurve"/>
      <point x="431" y="341"/>
      <point x="470" y="422"/>
      <point x="470" y="460" type="qcurve"/>
      <point x="470" y="505"/>
      <point x="425" y="553"/>
    </contour>
  </outline>
</glyph>
<glyph name="colon" format="2">
  <advance width="614"/>
  <unicode hex="003A"/>
  <outline>
    <contour>
      <point x="480" y="418" type="qcurve"/>
      <point x="480" y="361"/>
      <point x="399" y="292"/>
      <point x="332" y="292" type="qcurve"/>
      <point x="277" y="292"/>
      <point x="222" y="329"/>
      <point x="222" y="365" type="qcurve"/>
      <point x="222" y="422"/>
      <point x="303" y="491"/>
      <point x="370" y="491" type="qcurve"/>
      <point x="425" y="491"/>
      <point x="480" y="454"/>
    </contour>
    <contour>
      <point x="393" y="111" type="qcurve"/>
      <point x="393" y="54"/>
      <point x="312" y="-15"/>
      <point x="245" y="-15" type="qcurve"/>
      <point x="190" y="-15"/>
      <point x="135" y="22"/>
      <point x="135" y="58" type="qcurve"/>
      <point x="135" y="115"/>
      <point x="216" y="184"/>
      <point x="283" y="184" type="qcurve"/>
      <point x="338" y="184"/>
      <point x="393" y="147"/>
    </contour>
  </outline>
</glyph>
<glyph name="less" format="2">
  <advance width="614"/>
  <unicode hex="003C"/>
  <outline>
    <contour>
      <point x="63" y="256" type="line"/>
      <point x="101" y="387" type="line"/>
      <point x="645" y="589" type="line"/>
      <point x="603" y="446" type="line"/>
      <point x="219" y="313" type="line"/>
      <point x="527" y="179" type="line"/>
      <point x="491" y="52" type="line"/>
    </contour>
  </outline>
</glyph>
<glyph name="at" format="2">
  <advance width="614"/>
  <unicode hex="0040"/>
  <outline>
    <contour>
      <point x="408" y="-8" type="qcurve"/>
      <point x="415" y="-63" type="line"/>
      <point x="370" y="-72"/>
      <point x="301" y="-79"/>
      <point x="268" y="-79" type="qcurve"/>
      <point x="153" y="-79"/>
      <point x="48" y="19"/>
      <point x="48" y="125" type="qcurve"/>
      <point x="48" y="240"/>
      <point x="169" y="569"/>
      <point x="241" y="641" type="qcurve"/>
      <point x="283" y="683"/>
      <point x="388" y="725"/>
      <point x="452" y="725" type="qcurve"/>
      <point x="551" y="725"/>
      <point x="631" y="655"/>
      <point x="631" y="574" type="qcurve"/>
      <point x="631" y="488"/>
      <point x="557" y="231"/>
      <point x="514" y="188" type="qcurve"/>
      <point x="483" y="157"/>
      <point x="411" y="129"/>
      <point x="361" y="129" type="qcurve"/>
      <point x="290" y="129"/>
      <point x="218" y="190"/>
      <point x="218" y="251" type="qcurve"/>
      <point x="218" y="304"/>
      <point x="262" y="426"/>
      <point x="295" y="459" type="qcurve"/>
      <point x="324" y="488"/>
      <point x="403" y="515"/>
      <point x="464" y="515" type="qcurve"/>
      <point x="568" y="515" type="line"/>
      <point x="570" y="527"/>
      <point x="572" y="550"/>
      <point x="572" y="561" type="qcurve"/>
      <point x="572" y="619"/>
      <point x="515" y="670"/>
      <point x="447" y="670" type="qcurve"/>
      <point x="398" y="670"/>
      <point x="316" y="634"/>
      <point x="277" y="595" type="qcurve"/>
      <point x="217" y="535"/>
      <point x="109" y="234"/>
      <point x="109" y="136" type="qcurve"/>
      <point x="109" y="54"/>
      <point x="188" y="-24"/>
      <point x="272" y="-24" type="qcurve"/>
      <point x="304" y="-24"/>
      <point x="370" y="-16"/>
    </contour>
    <contour>
      <point x="359" y="398" type="qcurve"/>
      <point x="337" y="376"/>
      <point x="311" y="304"/>
      <point x="311" y="266" type="qcurve"/>
      <point x="311" y="239"/>
      <point x="339" y="215"/>
      <point x="370" y="215" type="qcurve"/>
      <point x="406" y="215"/>
      <point x="457" y="232"/>
      <point x="475" y="250" type="qcurve"/>
      <point x="495" y="270"/>
      <point x="535" y="365"/>
      <point x="551" y="429" type="qcurve"/>
      <point x="434" y="429" type="line"/>
      <point x="412" y="429"/>
      <point x="374" y="413"/>
    </contour>
  </outline>
</glyph>
<glyph name="A" format="2">
  <advance width="614"/>
  <unicode hex="0041"/>
  <outline>
    <contour>
      <point x="183" y="126" type="line"/>
      <point x="111" y="0" type="line"/>
      <point x="-40" y="0" type="line"/>
      <point x="336" y="655" type="line"/>
      <point x="514" y="655" type="line"/>
      <point x="520" y="0" type="line"/>
      <point x="380" y="0" type="line"/>
      <point x="381" y="126" type="line"/>
    </contour>
    <contour>
      <point x="393" y="515" type="line"/>
      <point x="244" y="239" type="line"/>
      <point x="389" y="239" type="line"/>
    </contour>
  </outline>
</glyph>
<glyph name="B" format="2">
  <advance width="614"/>
  <unicode hex="0042"/>
  <outline>
    <contour>
      <point x="7" y="0" type="line"/>
      <point x="195" y="655" type="line"/>
      <point x="466" y="655" type="line"/>
      <point x="548" y="655"/>
      <point x="640" y="585"/>
      <point x="640" y="523" type="qcurve"/>
      <point x="640" y="449"/>
      <point x="539" y="352"/>
      <point x="442" y="333" type="qcurve"/>
      <point x="442" y="329" type="line"/>
      <point x="499" y="316"/>
      <point x="561" y="247"/>
      <point x="561" y="198" type="qcurve"/>
      <point x="561" y="98"/>
      <point x="413" y="0"/>
      <point x="263" y="0" type="qcurve"/>
    </contour>
    <contour>
      <point x="484" y="490" type="qcurve"/>
      <point x="484" y="518"/>
      <point x="447" y="545"/>
      <point x="410" y="545" type="qcurve"/>
      <point x="306" y="545" type="line"/>
      <point x="260" y="384" type="line"/>
      <point x="344" y="389" type="line"/>
      <point x="414" y="393"/>
      <point x="484" y="443"/>
    </contour>
    <contour>
      <point x="417" y="204" type="qcurve"/>
      <point x="417" y="240"/>
      <point x="366" y="275"/>
      <point x="307" y="279" type="qcurve"/>
      <point x="232" y="284" type="line"/>
      <point x="181" y="109" type="line"/>
      <point x="285" y="109" type="line"/>
      <point x="350" y="109"/>
      <point x="417" y="157"/>
    </contour>
  </outline>
</glyph>
<glyph name="G" format="2">
  <advance width="614"/>
  <unicode hex="0047"/>
  <outline>
    <contour>
      <point x="641" y="651" type="qcurve"/>
      <point x="615" y="532" type="line"/>
      <point x="590" y="537"/>
      <point x="534" y="543"/>
      <point x="503" y="543" type="qcurve"/>
      <point x="433" y="543"/>
      <point x="322" y="500"/>
      <point x="283" y="460" type="qcurve"/>
      <point x="244" y="419"/>
      <point x="203" y="299"/>
      <point x="203" y="223" type="qcurve"/>
      <point x="203" y="161"/>
      <point x="265" y="105"/>
      <point x="333" y="105" type="qcurve"/>
      <point x="347" y="105"/>
      <point x="376" y="108"/>
      <point x="390" y="110" type="qcurve"/>
      <point x="434" y="263" type="line"/>
      <point x="320" y="263" type="line"/>
      <point x="352" y="374" type="line"/>
      <point x="602" y="374" type="line"/>
      <point x="497" y="11" type="line"/>
      <point x="444" y="-2"/>
      <point x="350" y="-15"/>
      <point x="305" y="-15" type="qcurve"/>
      <point x="181" y="-15"/>
      <point x="55" y="105"/>
      <point x="55" y="223" type="qcurve"/>
      <point x="55" y="322"/>
      <point x="119" y="487"/>
      <point x="177" y="545" type="qcurve"/>
      <point x="234" y="602"/>
      <point x="396" y="665"/>
      <point x="495" y="665" type="qcurve"/>
      <point x="532" y="665"/>
      <point x="602" y="658"/>
    </contour>
  </outline>
</glyph>
<glyph name="K" format="2">
  <advance width="614"/>
  <unicode hex="004B"/>
  <outline>
    <contour>
      <point x="198" y="655" type="line"/>
      <point x="343" y="655" type="line"/>
      <point x="254" y="344" type="line"/>
      <point x="545" y="655" type="line"/>
      <point x="722" y="655" type="line"/>
      <point x="722" y="653" type="line"/>
      <point x="398" y="323" type="line"/>
      <point x="535" y="2" type="line"/>
      <point x="535" y="0" type="line"/>
      <point x="375" y="0" type="line"/>
      <point x="245" y="312" type="line"/>
      <point x="155" y="0" type="line"/>
      <point x="10" y="0" type="line"/>
    </contour>
  </outline>
</glyph>
<glyph name="M" format="2">
  <advance width="614"/>
  <unicode hex="004D"/>
  <outline>
    <contour>
      <point x="513" y="655" type="line"/>
      <point x="654" y="655" type="line"/>
      <point x="494" y="0" type="line"/>
      <point x="361" y="0" type="line"/>
      <point x="481" y="462" type="line"/>
      <point x="295" y="165" type="line"/>
      <point x="275" y="165" type="line"/>
      <point x="263" y="461" type="line"/>
      <point x="115" y="0" type="line"/>
      <point x="-16" y="0" type="line"/>
      <point x="204" y="655" type="line"/>
      <point x="341" y="655" type="line"/>
      <point x="347" y="391" type="line"/>
    </contour>
  </outline>
</glyph>
<glyph name="R" format="2">
  <advance width="614"/>
  <unicode hex="0052"/>
  <outline>
    <contour>
      <point x="476" y="122" type="qcurve"/>
      <point x="534" y="4" type="line"/>
      <point x="533" y="0" type="line"/>
      <point x="372" y="0" type="line"/>
      <point x="296" y="164" type="line"/>
      <point x="279" y="202"/>
      <point x="248" y="231"/>
      <point x="222" y="237" type="qcurve"/>
      <point x="154" y="0" type="line"/>
      <point x="10" y="0" type="line"/>
      <point x="198" y="655" type="line"/>
      <point x="432" y="655" type="line"/>
      <point x="529" y="655"/>
      <point x="631" y="577"/>
      <point x="631" y="503" type="qcurve"/>
      <point x="631" y="398"/>
      <point x="499" y="278"/>
      <point x="372" y="268" type="qcurve"/>
      <point x="372" y="261" type="line"/>
      <point x="406" y="236"/>
      <point x="449" y="177"/>
    </contour>
    <contour>
      <point x="477" y="480" type="qcurve"/>
      <point x="477" y="512"/>
      <point x="440" y="541"/>
      <point x="399" y="541" type="qcurve"/>
      <point x="309" y="541" type="line"/>
      <point x="252" y="343" type="line"/>
      <point x="304" y="347" type="line"/>
      <point x="390" y="354"/>
      <point x="477" y="421"/>
    </contour>
  </outline>
</glyph>
<glyph name="T" format="2">
  <advance width="614"/>
  <unicode hex="0054"/>
  <outline>
    <contour>
      <point x="317" y="535" type="line"/>
      <point x="120" y="535" type="line"/>
      <point x="155" y="655" type="line"/>
      <point x="691" y="655" type="line"/>
      <point x="656" y="535" type="line"/>
      <point x="461" y="535" type="line"/>
      <point x="307" y="0" type="line"/>
      <point x="163" y="0" type="line"/>
    </contour>
  </outline>
</glyph>
<glyph name="U" format="2">
  <advance width="614"/>
  <unicode hex="0055"/>
  <outline>
    <contour>
      <point x="287" y="119" type="qcurve"/>
      <point x="329" y="119"/>
      <point x="383" y="167"/>
      <point x="397" y="217" type="qcurve"/>
      <point x="523" y="655" type="line"/>
      <point x="667" y="655" type="line"/>
      <point x="538" y="207" type="line"/>
      <point x="505" y="92"/>
      <point x="375" y="-15"/>
      <point x="268" y="-15" type="qcurve"/>
      <point x="165" y="-15"/>
      <point x="58" y="80"/>
      <point x="58" y="170" type="qcurve"/>
      <point x="58" y="192"/>
      <point x="69" y="249"/>
      <point x="83" y="296" type="qcurve"/>
      <point x="187" y="655" type="line"/>
      <point x="332" y="655" type="line"/>
      <point x="211" y="234" type="line"/>
      <point x="208" y="222"/>
      <point x="205" y="200"/>
      <point x="205" y="189" type="qcurve"/>
      <point x="205" y="155"/>
      <point x="247" y="119"/>
    </contour>
  </outline>
</glyph>
<glyph name="W" format="2">
  <advance width="614"/>
  <unicode hex="0057"/>
  <outline>
    <contour>
      <point x="698" y="655" type="line"/>
      <point x="430" y="0" type="line"/>
      <point x="308" y="0" type="line"/>
      <point x="319" y="287" type="line"/>
      <point x="165" y="0" type="line"/>
      <point x="47" y="0" type="line"/>
      <point x="156" y="655" type="line"/>
      <point x="290" y="655" type="line"/>
      <point x="220" y="268" type="line"/>
      <point x="373" y="531" type="line"/>
      <point x="398" y="531" type="line"/>
      <point x="401" y="248" type="line"/>
      <point x="552" y="655" type="line"/>
    </contour>
  </outline>
</glyph>
<glyph name="X" format="2">
  <advance width="614"/>
  <unicode hex="0058"/>
  <outline>
    <contour>
      <point x="108" y="0" type="line"/>
      <point x="-46" y="0" type="line"/>
      <point x="254" y="341" type="line"/>
      <point x="157" y="655" type="line"/>
      <point x="305" y="655" type="line"/>
      <point x="360" y="447" type="line"/>
      <point x="528" y="655" type="line"/>
      <point x="696" y="655" type="line"/>
      <point x="408" y="330" type="line"/>
      <point x="521" y="0" type="line"/>
      <point x="359" y="0" type="line"/>
      <point x="300" y="226" type="line"/>
    </contour>
  </outline>
</glyph>
<glyph name="Z" format="2">
  <advance width="614"/>
  <unicode hex="005A"/>
  <outline>
    <contour>
      <point x="498" y="0" type="line"/>
      <point x="10" y="0" type="line"/>
      <point x="10" y="70" type="line"/>
      <point x="426" y="533" type="line"/>
      <point x="426" y="535" type="line"/>
      <point x="144" y="535" type="line"/>
      <point x="179" y="655" type="line"/>
      <point x="647" y="655" type="line"/>
      <point x="647" y="585" type="line"/>
      <point x="222" y="121" type="line"/>
      <point x="222" y="119" type="line"/>
      <point x="532" y="119" type="line"/>
    </contour>
  </outline>
</glyph>
<glyph name="bracketleft" format="2">
  <advance width="614"/>
  <unicode hex="005B"/>
  <outline>
    <contour>
      <point x="435" y="-148" type="line"/>
      <point x="44" y="-148" type="line"/>
      <point x="315" y="797" type="line"/>
      <point x="706" y="797" type="line"/>
      <point x="671" y="678" type="line"/>
      <point x="426" y="678" type="line"/>
      <point x="223" y="-28" type="line"/>
      <point x="469" y="-28" type="line"/>
    </contour>
  </outline>
</glyph>
<glyph name="backslash" format="2">
  <advance width="614"/>
  <unicode hex="005C"/>
  <outline>
    <contour>
      <point x="344" y="-100" type="line"/>
      <point x="191" y="755" type="line"/>
      <point x="320" y="755" type="line"/>
      <point x="474" y="-100" type="line"/>
    </contour>
  </outline>
</glyph>
<glyph name="asciicircum" format="2">
  <advance width="614"/>
  <unicode hex="005E"/>
  <outline>
    <contour>
      <point x="193" y="271" type="line"/>
      <point x="45" y="271" type="line"/>
      <point x="336" y="655" type="line"/>
      <point x="518" y="655" type="line"/>
      <point x="585" y="271" type="line"/>
      <point x="448" y="271" type="line"/>
      <point x="407" y="568" type="line"/>
    </contour>
  </outline>
</glyph>
<glyph name="grave" format="2">
  <advance width="614"/>
  <unicode hex="0060"/>
  <outline>
    <contour>
      <point x="487" y="359" type="line"/>
      <point x="354" y="359" type="line"/>
      <point x="238" y="710" type="line"/>
      <point x="444" y="710" type="line"/>
    </contour>
  </outline>
</glyph>
<glyph name="b" format="2">
  <advance width="614"/>
  <unicode hex="0062"/>
  <outline>
    <contour>
      <point x="210" y="710" type="line"/>
      <point x="355" y="710" type="line"/>
      <point x="278" y="442" type="line"/>
      <point x="314" y="466"/>
      <point x="384" y="490"/>
      <point x="421" y="490" type="qcurve"/>
      <point x="492" y="490"/>
      <point x="586" y="386"/>
      <point x="586" y="300" type="qcurve"/>
      <point x="586" y="166"/>
      <point x="394" y="-8"/>
      <point x="243" y="-8" type="qcurve"/>
      <point x="183" y="-8"/>
      <point x="73" y="18"/>
      <point x="19" y="45" type="qcurve"/>
    </contour>
    <contour>
      <point x="434" y="279" type="qcurve"/>
      <point x="434" y="323"/>
      <point x="391" y="371"/>
      <point x="351" y="371" type="qcurve"/>
      <point x="328" y="371"/>
      <point x="277" y="349"/>
      <point x="245" y="326" type="qcurve"/>
      <point x="186" y="122" type="line"/>
      <point x="202" y="116"/>
      <point x="233" y="111"/>
      <point x="249" y="111" type="qcurve"/>
      <point x="331" y="111"/>
      <point x="434" y="208"/>
    </contour>
  </outline>
</glyph>
<glyph name="e" format="2">
  <advance width="614"/>
  <unicode hex="0065"/>
  <outline>
    <contour>
      <point x="431" y="103" type="qcurve"/>
      <point x="398" y="-13" type="line"/>
      <point x="321" y="-13"/>
      <point x="209" y="-3"/>
      <point x="170" y="8" type="qcurve"/>
      <point x="106" y="26"/>
      <point x="47" y="102"/>
      <point x="47" y="175" type="qcurve"/>
      <point x="47" y="234"/>
      <point x="104" y="354"/>
      <point x="155" y="400" type="qcurve"/>
      <point x="203" y="445"/>
      <point x="324" y="492"/>
      <point x="390" y="492" type="qcurve"/>
      <point x="481" y="492"/>
      <point x="582" y="416"/>
      <point x="582" y="348" type="qcurve"/>
      <point x="582" y="273"/>
      <point x="467" y="192"/>
      <point x="346" y="182" type="qcurve"/>
      <point x="193" y="171" type="line"/>
      <point x="193" y="170"/>
      <point x="193" y="169"/>
      <point x="193" y="167" type="qcurve"/>
      <point x="193" y="129"/>
      <point x="291" y="102"/>
    </contour>
    <contour>
      <point x="440" y="333" type="qcurve"/>
      <point x="440" y="355"/>
      <point x="404" y="379"/>
      <point x="372" y="379" type="qcurve"/>
      <point x="318" y="379"/>
      <point x="222" y="312"/>
      <point x="202" y="259" type="qcurve"/>
      <point x="346" y="275" type="line"/>
      <point x="396" y="281"/>
      <point x="440" y="307"/>
    </contour>
  </outline>
</glyph>
<glyph name="f" format="2">
  <advance width="614"/>
  <unicode hex="0066"/>
  <outline>
    <contour>
      <point x="239" y="338" type="line"/>
      <point x="91" y="338" type="line"/>
      <point x="126" y="460" type="line"/>
      <point x="274" y="460" type="line"/>
      <point x="280" y="482" type="line"/>
      <point x="317" y="609"/>
      <point x="429" y="700"/>
      <point x="569" y="712" type="qcurve"/>
      <point x="664" y="720" type="line"/>
      <point x="664" y="598" type="line"/>
      <point x="547" y="590" type="line"/>
      <point x="487" y="586"/>
      <point x="438" y="549"/>
      <point x="423" y="496" type="qcurve"/>
      <point x="413" y="460" type="line"/>
      <point x="582" y="460" type="line"/>
      <point x="547" y="338" type="line"/>
      <point x="383" y="338" type="line"/>
      <point x="285" y="0" type="line"/>
      <point x="141" y="0" type="line"/>
    </contour>
  </outline>
</glyph>
<glyph name="i" format="2">
  <advance width="614"/>
  <unicode hex="0069"/>
  <outline>
    <contour>
      <point x="536" y="680" type="qcurve"/>
      <point x="536" y="632"/>
      <point x="470" y="578"/>
      <point x="411" y="578" type="qcurve"/>
      <point x="365" y="578"/>
      <point x="316" y="615"/>
      <point x="316" y="649" type="qcurve"/>
      <point x="316" y="696"/>
      <point x="382" y="751"/>
      <point x="441" y="751" type="qcurve"/>
      <point x="487" y="751"/>
      <point x="536" y="715"/>
    </contour>
    <contour>
      <point x="25" y="0" type="line"/>
      <point x="60" y="122" type="line"/>
      <point x="208" y="122" type="line"/>
      <point x="291" y="355" type="line"/>
      <point x="147" y="355" type="line"/>
      <point x="182" y="477" type="line"/>
      <point x="479" y="477" type="line"/>
      <point x="353" y="122" type="line"/>
      <point x="519" y="122" type="line"/>
      <point x="484" y="0" type="line"/>
    </contour>
  </outline>
</glyph>
<glyph name="j" format="2">
  <advance width="614"/>
  <unicode hex="006A"/>
  <outline>
    <contour>
      <point x="607" y="680" type="qcurve"/>
      <point x="607" y="632"/>
      <point x="541" y="578"/>
      <point x="482" y="578" type="qcurve"/>
      <point x="436" y="578"/>
      <point x="387" y="615"/>
      <point x="387" y="649" type="qcurve"/>
      <point x="387" y="696"/>
      <point x="453" y="751"/>
      <point x="512" y="751" type="qcurve"/>
      <point x="558" y="751"/>
      <point x="607" y="715"/>
    </contour>
    <contour>
      <point x="542" y="477" type="line"/>
      <point x="416" y="37" type="line"/>
      <point x="395" y="-38"/>
      <point x="342" y="-139"/>
      <point x="303" y="-170" type="qcurve"/>
      <point x="264" y="-200"/>
      <point x="150" y="-228"/>
      <point x="67" y="-232" type="qcurve"/>
      <point x="-29" y="-236" type="line"/>
      <point x="-29" y="-112" type="line"/>
      <point x="73" y="-107" type="line"/>
      <point x="120" y="-105"/>
      <point x="186" y="-88"/>
      <point x="209" y="-70" type="qcurve"/>
      <point x="232" y="-52"/>
      <point x="263" y="9"/>
      <point x="276" y="54" type="qcurve"/>
      <point x="362" y="355" type="line"/>
      <point x="145" y="355" type="line"/>
      <point x="180" y="477" type="line"/>
    </contour>
  </outline>
</glyph>
<glyph name="n" format="2">
  <advance width="614"/>
  <unicode hex="006E"/>
  <outline>
    <contour>
      <point x="147" y="477" type="line"/>
      <point x="273" y="477" type="line"/>
      <point x="255" y="384" type="line"/>
      <point x="334" y="444"/>
      <point x="424" y="488"/>
      <point x="471" y="488" type="qcurve"/>
      <point x="523" y="488"/>
      <point x="577" y="438"/>
      <point x="577" y="391" type="qcurve"/>
      <point x="577" y="376"/>
      <point x="572" y="344"/>
      <point x="567" y="327" type="qcurve"/>
      <point x="473" y="0" type="line"/>
      <point x="328" y="0" type="line"/>
      <point x="414" y="300" type="line"/>
      <point x="416" y="306"/>
      <point x="418" y="318"/>
      <point x="418" y="324" type="qcurve"/>
      <point x="418" y="337"/>
      <point x="405" y="351"/>
      <point x="392" y="351" type="qcurve"/>
      <point x="369" y="351"/>
      <point x="298" y="306"/>
      <point x="226" y="248" type="qcurve"/>
      <point x="155" y="0" type="line"/>
      <point x="10" y="0" type="line"/>
    </contour>
  </outline>
</glyph>
<glyph name="o" format="2">
  <advance width="614"/>
  <unicode hex="006F"/>
  <outline>
    <contour>
      <point x="39" y="191" type="qcurve"/>
      <point x="39" y="256"/>
      <point x="89" y="367"/>
      <point x="132" y="407" type="qcurve"/>
      <point x="174" y="447"/>
      <point x="290" y="492"/>
      <point x="356" y="492" type="qcurve"/>
      <point x="454" y="492"/>
      <point x="575" y="378"/>
      <point x="575" y="286" type="qcurve"/>
      <point x="575" y="224"/>
      <point x="528" y="115"/>
      <point x="488" y="75" type="qcurve"/>
      <point x="445" y="33"/>
      <point x="327" y="-15"/>
      <point x="258" y="-15" type="qcurve"/>
      <point x="160" y="-15"/>
      <point x="39" y="99"/>
    </contour>
    <contour>
      <point x="189" y="200" type="qcurve"/>
      <point x="189" y="156"/>
      <point x="241" y="104"/>
      <point x="284" y="104" type="qcurve"/>
      <point x="342" y="104"/>
      <point x="425" y="208"/>
      <point x="425" y="277" type="qcurve"/>
      <point x="425" y="321"/>
      <point x="373" y="373"/>
      <point x="330" y="373" type="qcurve"/>
      <point x="272" y="373"/>
      <point x="189" y="269"/>
    </contour>
  </outline>
</glyph>
<glyph name="p" format="2">
  <advance width="614"/>
  <unicode hex="0070"/>
  <outline>
    <contour>
      <point x="84" y="-230" type="line"/>
      <point x="-61" y="-230" type="line"/>
      <point x="142" y="477" type="line"/>
      <point x="250" y="477" type="line"/>
      <point x="258" y="428" type="line"/>
      <point x="299" y="460"/>
      <point x="378" y="490"/>
      <point x="420" y="490" type="qcurve"/>
      <point x="491" y="490"/>
      <point x="585" y="386"/>
      <point x="585" y="300" type="qcurve"/>
      <point x="585" y="166"/>
      <point x="393" y="-8"/>
      <point x="242" y="-8" type="qcurve"/>
      <point x="220" y="-8"/>
      <point x="174" y="-4"/>
      <point x="150" y="0" type="qcurve"/>
    </contour>
    <contour>
      <point x="433" y="279" type="qcurve"/>
      <point x="433" y="323"/>
      <point x="390" y="371"/>
      <point x="350" y="371" type="qcurve"/>
      <point x="327" y="371"/>
      <point x="276" y="349"/>
      <point x="244" y="326" type="qcurve"/>
      <point x="185" y="122" type="line"/>
      <point x="201" y="116"/>
      <point x="232" y="111"/>
      <point x="248" y="111" type="qcurve"/>
      <point x="330" y="111"/>
      <point x="433" y="208"/>
    </contour>
  </outline>
</glyph>
<glyph name="q" format="2">
  <advance width="614"/>
  <unicode hex="0071"/>
  <outline>
    <contour>
      <point x="408" y="-230" type="line"/>
      <point x="263" y="-230" type="line"/>
      <point x="341" y="41" type="line"/>
      <point x="304" y="16"/>
      <point x="235" y="-8"/>
      <point x="197" y="-8" type="qcurve"/>
      <point x="126" y="-8"/>
      <point x="32" y="96"/>
      <point x="32" y="182" type="qcurve"/>
      <point x="32" y="316"/>
      <point x="224" y="490"/>
      <point x="375" y="490" type="qcurve"/>
      <point x="435" y="490"/>
      <point x="545" y="464"/>
      <point x="599" y="437" type="qcurve"/>
    </contour>
    <contour>
      <point x="369" y="371" type="qcurve"/>
      <point x="287" y="371"/>
      <point x="184" y="274"/>
      <point x="184" y="203" type="qcurve"/>
      <point x="184" y="159"/>
      <point x="227" y="111"/>
      <point x="267" y="111" type="qcurve"/>
      <point x="290" y="111"/>
      <point x="342" y="133"/>
      <point x="374" y="157" type="qcurve"/>
      <point x="432" y="360" type="line"/>
      <point x="417" y="365"/>
      <point x="385" y="371"/>
    </contour>
  </outline>
</glyph>
<glyph name="s" format="2">
  <advance width="614"/>
  <unicode hex="0073"/>
  <outline>
    <contour>
      <point x="521" y="148" type="qcurve"/>
      <point x="521" y="75"/>
      <point x="376" y="-14"/>
      <point x="253" y="-14" type="qcurve"/>
      <point x="195" y="-14"/>
      <point x="91" y="-6"/>
      <point x="8" y="6" type="qcurve"/>
      <point x="34" y="123" type="line"/>
      <point x="103" y="112"/>
      <point x="224" y="99"/>
      <point x="258" y="99" type="qcurve"/>
      <point x="317" y="99"/>
      <point x="374" y="117"/>
      <point x="374" y="137" type="qcurve"/>
      <point x="374" y="152"/>
      <point x="354" y="167"/>
      <point x="316" y="179" type="qcurve"/>
      <point x="250" y="199" type="line"/>
      <point x="166" y="225"/>
      <point x="104" y="282"/>
      <point x="104" y="338" type="qcurve"/>
      <point x="104" y="413"/>
      <point x="236" y="491"/>
      <point x="365" y="491" type="qcurve"/>
      <point x="411" y="491"/>
      <point x="521" y="483"/>
      <point x="572" y="475" type="qcurve"/>
      <point x="539" y="359" type="line"/>
      <point x="483" y="368"/>
      <point x="390" y="378"/>
      <point x="360" y="378" type="qcurve"/>
      <point x="302" y="378"/>
      <point x="252" y="364"/>
      <point x="252" y="346" type="qcurve"/>
      <point x="252" y="334"/>
      <point x="264" y="322"/>
      <point x="305" y="309" type="qcurve"/>
      <point x="368" y="289" type="line"/>
      <point x="458" y="261"/>
      <point x="521" y="204"/>
    </contour>
  </outline>
</glyph>
<glyph name="t" format="2">
  <advance width="614"/>
  <unicode hex="0074"/>
  <outline>
    <contour>
      <point x="375" y="355" type="line"/>
      <point x="334" y="250" type="line"/>
      <point x="324" y="225"/>
      <point x="314" y="189"/>
      <point x="314" y="177" type="qcurve"/>
      <point x="314" y="153"/>
      <point x="343" y="130"/>
      <point x="374" y="128" type="qcurve"/>
      <point x="491" y="119" type="line"/>
      <point x="456" y="-5" type="line"/>
      <point x="348" y="-1" type="line"/>
      <point x="254" y="2"/>
      <point x="162" y="70"/>
      <point x="162" y="137" type="qcurve"/>
      <point x="162" y="167"/>
      <point x="175" y="218"/>
      <point x="190" y="254" type="qcurve"/>
      <point x="231" y="355" type="line"/>
      <point x="78" y="355" type="line"/>
      <point x="113" y="477" type="line"/>
      <point x="280" y="477" type="line"/>
      <point x="346" y="640" type="line"/>
      <point x="485" y="640" type="line"/>
      <point x="422" y="477" type="line"/>
      <point x="588" y="477" type="line"/>
      <point x="553" y="355" type="line"/>
    </contour>
  </outline>
</glyph>
<glyph name="x" format="2">
  <advance width="614"/>
  <unicode hex="0078"/>
  <outline>
    <contour>
      <point x="143" y="0" type="line"/>
      <point x="-25" y="0" type="line"/>
      <point x="221" y="254" type="line"/>
      <point x="106" y="477" type="line"/>
      <point x="267" y="477" type="line"/>
      <point x="327" y="340" type="line"/>
      <point x="444" y="477" type="line"/>
      <point x="625" y="477" type="line"/>
      <point x="387" y="234" type="line"/>
      <point x="519" y="0" type="line"/>
      <point x="347" y="0" type="line"/>
      <point x="280" y="155" type="line"/>
    </contour>
  </outline>
</glyph>
<glyph name="z" format="2">
  <advance width="614"/>
  <unicode hex="007A"/>
  <outline>
    <contour>
      <point x="467" y="0" type="line"/>
      <point x="41" y="0" type="line"/>
      <point x="41" y="69" type="line"/>
      <point x="344" y="361" type="line"/>
      <point x="344" y="364" type="line"/>
      <point x="128" y="364" type="line"/>
      <point x="161" y="477" type="line"/>
      <point x="559" y="477" type="line"/>
      <point x="559" y="407" type="line"/>
      <point x="258" y="116" type="line"/>
      <point x="258" y="113" type="line"/>
      <point x="499" y="113" type="line"/>
    </contour>
  </outline>
</glyph>
<glyph name="braceleft" format="2">
  <advance width="614"/>
  <unicode hex="007B"/>
  <outline>
    <contour>
      <point x="113" y="-17" type="qcurve"/>
      <point x="113" y="14"/>
      <point x="145" y="63"/>
      <point x="186" y="99" type="qcurve"/>
      <point x="243" y="148" type="line"/>
      <point x="266" y="168"/>
      <point x="279" y="183"/>
      <point x="279" y="190" type="qcurve"/>
      <point x="279" y="207"/>
      <point x="185" y="242"/>
      <point x="72" y="271" type="qcurve"/>
      <point x="106" y="391" type="line"/>
      <point x="152" y="403"/>
      <point x="219" y="421"/>
      <point x="245" y="428" type="qcurve"/>
      <point x="318" y="448"/>
      <point x="370" y="470"/>
      <point x="370" y="484" type="qcurve"/>
      <point x="370" y="489"/>
      <point x="363" y="505"/>
      <point x="353" y="520" type="qcurve"/>
      <point x="319" y="572" type="line"/>
      <point x="305" y="594"/>
      <point x="292" y="628"/>
      <point x="292" y="645" type="qcurve"/>
      <point x="292" y="698"/>
      <point x="365" y="758"/>
      <point x="440" y="768" type="qcurve"/>
      <point x="751" y="810" type="line"/>
      <point x="716" y="689" type="line"/>
      <point x="490" y="658" type="line"/>
      <point x="467" y="654"/>
      <point x="448" y="643"/>
      <point x="448" y="633" type="qcurve"/>
      <point x="448" y="626"/>
      <point x="454" y="613"/>
      <point x="462" y="601" type="qcurve"/>
      <point x="496" y="549" type="line"/>
      <point x="517" y="518"/>
      <point x="532" y="484"/>
      <point x="532" y="471" type="qcurve"/>
      <point x="532" y="438"/>
      <point x="467" y="397"/>
      <point x="391" y="377" type="qcurve"/>
      <point x="357" y="368"/>
      <point x="268" y="348"/>
      <point x="212" y="338" type="qcurve"/>
      <point x="205" y="314" type="line"/>
      <point x="247" y="305"/>
      <point x="313" y="287"/>
      <point x="339" y="279" type="qcurve"/>
      <point x="393" y="261"/>
      <point x="440" y="226"/>
      <point x="440" y="199" type="qcurve"/>
      <point x="440" y="178"/>
      <point x="410" y="139"/>
      <point x="367" y="105" type="qcurve"/>
      <point x="312" y="61" type="line"/>
      <point x="295" y="48"/>
      <point x="282" y="32"/>
      <point x="282" y="23" type="qcurve"/>
      <point x="282" y="15"/>
      <point x="292" y="5"/>
      <point x="302" y="4" type="qcurve"/>
      <point x="510" y="-27" type="line"/>
      <point x="476" y="-148" type="line"/>
      <point x="260" y="-116" type="line"/>
      <point x="182" y="-104"/>
      <point x="113" y="-59"/>
    </contour>
  </outline>
</glyph>
<glyph name="bar" format="2">
  <advance width="614"/>
  <unicode hex="007C"/>
  <outline>
    <contour>
      <point x="390" y="755" type="line"/>
      <point x="520" y="755" type="line"/>
      <point x="275" y="-100" type="line"/>
      <point x="145" y="-100" type="line"/>
    </contour>
  </outline>
</glyph>
<glyph name="asciitilde" format="2">
  <advance width="614"/>
  <unicode hex="007E"/>
  <outline>
    <contour>
      <point x="234" y="460" type="qcurve"/>
      <point x="260" y="460"/>
      <point x="299" y="438"/>
      <point x="350" y="390" type="qcurve"/>
      <point x="388" y="354"/>
      <point x="412" y="336"/>
      <point x="422" y="336" type="qcurve"/>
      <point x="432" y="336"/>
      <point x="460" y="374"/>
      <point x="516" y="466" type="qcurve"/>
      <point x="616" y="407" type="line"/>
      <point x="552" y="292"/>
      <point x="467" y="202"/>
      <point x="415" y="202" type="qcurve"/>
      <point x="389" y="202"/>
      <point x="350" y="224"/>
      <point x="299" y="272" type="qcurve"/>
      <point x="261" y="308"/>
      <point x="237" y="326"/>
      <point x="227" y="326" type="qcurve"/>
      <point x="217" y="326"/>
      <point x="189" y="288"/>
      <point x="133" y="196" type="qcurve"/>
      <point x="33" y="255" type="line"/>
      <point x="97" y="370"/>
      <point x="182" y="460"/>
    </contour>
  </outline>
</glyph>
<glyph name="yen" format="2">
  <advance width="614"/>
  <unicode hex="00A5"/>
  <outline>
    <contour>
      <point x="207" y="124" type="line"/>
      <point x="44" y="124" type="line"/>
      <point x="65" y="200" type="line"/>
      <point x="229" y="200" type="line"/>
      <point x="253" y="283" type="line"/>
      <point x="89" y="283" type="line"/>
      <point x="111" y="359" type="line"/>
      <point x="250" y="359" type="line"/>
      <point x="135" y="655" type="line"/>
      <point x="286" y="655" type="line"/>
      <point x="356" y="440" type="line"/>
      <point x="551" y="655" type="line"/>
      <point x="719" y="655" type="line"/>
      <point x="433" y="359" type="line"/>
      <point x="573" y="359" type="line"/>
      <point x="551" y="283" type="line"/>
      <point x="387" y="283" type="line"/>
      <point x="363" y="200" type="line"/>
      <point x="527" y="200" type="line"/>
      <point x="506" y="124" type="line"/>
      <point x="341" y="124" type="line"/>
      <point x="306" y="0" type="line"/>
      <point x="172" y="0" type="line"/>
    </contour>
  </outline>
</glyph>
<glyph name="section" format="2">
  <advance width="614"/>
  <unicode hex="00A7"/>
  <outline>
    <contour>
      <point x="24" y="171" type="qcurve"/>
      <point x="24" y="203"/>
      <point x="43" y="254"/>
      <point x="65" y="277" type="qcurve"/>
      <point x="87" y="301"/>
      <point x="159" y="349"/>
      <point x="211" y="377" type="qcurve"/>
      <point x="187" y="400"/>
      <point x="165" y="455"/>
      <point x="165" y="491" type="qcurve"/>
      <point x="165" y="571"/>
      <point x="295" y="667"/>
      <point x="406" y="667" type="qcurve"/>
      <point x="465" y="667"/>
      <point x="576" y="648"/>
      <point x="653" y="625" type="qcurve"/>
      <point x="619" y="507" type="line"/>
      <point x="553" y="528"/>
      <point x="448" y="548"/>
      <point x="403" y="548" type="qcurve"/>
      <point x="355" y="548"/>
      <point x="309" y="524"/>
      <point x="309" y="499" type="qcurve"/>
      <point x="309" y="482"/>
      <point x="335" y="457"/>
      <point x="377" y="434" type="qcurve"/>
      <point x="467" y="385" type="line"/>
      <point x="522" y="355"/>
      <point x="569" y="296"/>
      <point x="569" y="256" type="qcurve"/>
      <point x="569" y="224"/>
      <point x="549" y="172"/>
      <point x="526" y="148" type="qcurve"/>
      <point x="504" y="125"/>
      <point x="433" y="78"/>
      <point x="382" y="50" type="qcurve"/>
      <point x="406" y="27"/>
      <point x="428" y="-28"/>
      <point x="428" y="-64" type="qcurve"/>
      <point x="428" y="-144"/>
      <point x="298" y="-240"/>
      <point x="187" y="-240" type="qcurve"/>
      <point x="128" y="-240"/>
      <point x="17" y="-221"/>
      <point x="-60" y="-198" type="qcurve"/>
      <point x="-26" y="-80" type="line"/>
      <point x="40" y="-101"/>
      <point x="145" y="-121"/>
      <point x="190" y="-121" type="qcurve"/>
      <point x="238" y="-121"/>
      <point x="284" y="-97"/>
      <point x="284" y="-72" type="qcurve"/>
      <point x="284" y="-55"/>
      <point x="258" y="-30"/>
      <point x="216" y="-7" type="qcurve"/>
      <point x="126" y="42" type="line"/>
      <point x="71" y="72"/>
      <point x="24" y="131"/>
    </contour>
    <contour>
      <point x="168" y="202" type="qcurve"/>
      <point x="168" y="186"/>
      <point x="197" y="162"/>
      <point x="247" y="135" type="qcurve"/>
      <point x="291" y="111" type="line"/>
      <point x="331" y="135"/>
      <point x="383" y="168"/>
      <point x="398" y="180" type="qcurve"/>
      <point x="414" y="193"/>
      <point x="425" y="214"/>
      <point x="425" y="225" type="qcurve"/>
      <point x="425" y="241"/>
      <point x="396" y="265"/>
      <point x="346" y="292" type="qcurve"/>
      <point x="302" y="316" type="line"/>
      <point x="262" y="292"/>
      <point x="210" y="259"/>
      <point x="195" y="247" type="qcurve"/>
      <point x="179" y="234"/>
      <point x="168" y="213"/>
    </contour>
  </outline>
</glyph>
<glyph name="guillemetleft" format="2">
  <advance width="614"/>
  <unicode hex="00AB"/>
  <outline>
    <contour>
      <point x="239" y="97" type="line"/>
      <point x="206" y="-15" type="line"/>
      <point x="34" y="181" type="line"/>
      <point x="67" y="297" type="line"/>
      <point x="352" y="492" type="line"/>
      <point x="312" y="349" type="line"/>
      <point x="169" y="225" type="line"/>
    </contour>
    <contour>
      <point x="514" y="97" type="line"/>
      <point x="481" y="-15" type="line"/>
      <point x="308" y="161" type="line"/>
      <point x="341" y="277" type="line"/>
      <point x="627" y="492" type="line"/>
      <point x="587" y="349" type="line"/>
      <point x="444" y="210" type="line"/>
    </contour>
  </outline>
</glyph>
<glyph name="registered" format="2">
  <advance width="614"/>
  <unicode hex="00AE"/>
  <outline>
    <contour>
      <point x="620" y="538" type="qcurve"/>
      <point x="620" y="469"/>
      <point x="575" y="347"/>
      <point x="536" y="303" type="qcurve"/>
      <point x="498" y="259"/>
      <point x="393" y="208"/>
      <point x="332" y="208" type="qcurve"/>
      <point x="234" y="208"/>
      <point x="125" y="307"/>
      <point x="125" y="395" type="qcurve"/>
      <point x="125" y="463"/>
      <point x="169" y="583"/>
      <point x="207" y="628" type="qcurve"/>
      <point x="245" y="673"/>
      <point x="351" y="725"/>
      <point x="413" y="725" type="qcurve"/>
      <point x="511" y="725"/>
      <point x="620" y="626"/>
    </contour>
    <contour>
      <point x="580" y="532" type="qcurve"/>
      <point x="580" y="610"/>
      <point x="496" y="689"/>
      <point x="414" y="689" type="qcurve"/>
      <point x="363" y="689"/>
      <point x="273" y="644"/>
      <point x="239" y="606" type="qcurve"/>
      <point x="205" y="567"/>
      <point x="165" y="461"/>
      <point x="165" y="401" type="qcurve"/>
      <point x="165" y="323"/>
      <point x="249" y="244"/>
      <point x="331" y="244" type="qcurve"/>
      <point x="382" y="244"/>
      <point x="473" y="289"/>
      <point x="506" y="327" type="qcurve"/>
      <point x="540" y="366"/>
      <point x="580" y="472"/>
    </contour>
    <contour>
      <point x="433" y="392" type="qcurve"/>
      <point x="456" y="345" type="line"/>
      <point x="455" y="343" type="line"/>
      <point x="384" y="343" type="line"/>
      <point x="360" y="406" type="line"/>
      <point x="355" y="419"/>
      <point x="344" y="431"/>
      <point x="334" y="434" type="qcurve"/>
      <point x="308" y="343" type="line"/>
      <point x="247" y="343" type="line"/>
      <point x="322" y="604" type="line"/>
      <point x="415" y="604" type="line"/>
      <point x="454" y="604"/>
      <point x="494" y="573"/>
      <point x="494" y="543" type="qcurve"/>
      <point x="494" y="501"/>
      <point x="441" y="454"/>
      <point x="391" y="450" type="qcurve"/>
      <point x="391" y="447" type="line"/>
      <point x="406" y="436"/>
      <point x="423" y="413"/>
    </contour>
    <contour>
      <point x="428" y="532" type="qcurve"/>
      <point x="428" y="543"/>
      <point x="415" y="555"/>
      <point x="402" y="555" type="qcurve"/>
      <point x="369" y="555" type="line"/>
      <point x="348" y="482" type="line"/>
      <point x="364" y="483" type="line"/>
      <point x="396" y="486"/>
      <point x="428" y="510"/>
    </contour>
  </outline>
</glyph>
<glyph name="paragraph" format="2">
  <advance width="614"/>
  <unicode hex="00B6"/>
  <outline>
    <contour>
      <point x="399" y="593" type="line"/>
      <point x="303" y="257" type="line"/>
      <point x="299" y="257" type="line"/>
      <point x="210" y="257"/>
      <point x="113" y="348"/>
      <point x="113" y="430" type="qcurve"/>
      <point x="113" y="556"/>
      <point x="292" y="705"/>
      <point x="450" y="705" type="qcurve"/>
      <point x="673" y="705" type="line"/>
      <point x="471" y="0" type="line"/>
      <point x="326" y="0" type="line"/>
      <point x="496" y="593" type="line"/>
    </contour>
  </outline>
</glyph>
<glyph name="Aring" format="2">
  <advance width="614"/>
  <unicode hex="00C5"/>
  <outline>
    <contour>
      <point x="183" y="126" type="line"/>
      <point x="111" y="0" type="line"/>
      <point x="-40" y="0" type="line"/>
      <point x="293" y="580" type="line"/>
      <point x="275" y="595"/>
      <point x="256" y="637"/>
      <point x="256" y="662" type="qcurve"/>
      <point x="256" y="732"/>
      <point x="362" y="818"/>
      <point x="449" y="818" type="qcurve"/>
      <point x="525" y="818"/>
      <point x="610" y="756"/>
      <point x="610" y="701" type="qcurve"/>
      <point x="610" y="655"/>
      <point x="560" y="582"/>
      <point x="515" y="563" type="qcurve"/>
      <point x="520" y="0" type="line"/>
      <point x="380" y="0" type="line"/>
      <point x="381" y="126" type="line"/>
    </contour>
    <contour>
      <point x="510" y="696" type="qcurve"/>
      <point x="510" y="717"/>
      <point x="474" y="740"/>
      <point x="440" y="740" type="qcurve"/>
      <point x="401" y="740"/>
      <point x="356" y="700"/>
      <point x="356" y="667" type="qcurve"/>
      <point x="356" y="646"/>
      <point x="392" y="623"/>
      <point x="426" y="623" type="qcurve"/>
      <point x="465" y="623"/>
      <point x="510" y="663"/>
    </contour>
    <contour>
      <point x="393" y="515" type="line"/>
      <point x="244" y="239" type="line"/>
      <point x="389" y="239" type="line"/>
    </contour>
  </outline>
</glyph>
<glyph name="AE" format="2">
  <advance width="614"/>
  <unicode hex="00C6"/>
  <outline>
    <contour>
      <point x="134" y="142" type="line"/>
      <point x="55" y="0" type="line"/>
      <point x="-69" y="0" type="line"/>
      <point x="310" y="655" type="line"/>
      <point x="694" y="655" type="line"/>
      <point x="662" y="543" type="line"/>
      <point x="512" y="543" type="line"/>
      <point x="466" y="384" type="line"/>
      <point x="602" y="384" type="line"/>
      <point x="571" y="276" type="line"/>
      <point x="435" y="276" type="line"/>
      <point x="388" y="112" type="line"/>
      <point x="538" y="112" type="line"/>
      <point x="506" y="0" type="line"/>
      <point x="221" y="0" type="line"/>
      <point x="262" y="142" type="line"/>
    </contour>
    <contour>
      <point x="358" y="543" type="line"/>
      <point x="192" y="245" type="line"/>
      <point x="291" y="245" type="line"/>
      <point x="377" y="543" type="line"/>
    </contour>
  </outline>
</glyph>
<glyph name="Ccedilla" format="2">
  <advance width="614"/>
  <unicode hex="00C7"/>
  <outline>
    <contour>
      <point x="393" y="-140" type="qcurve"/>
      <point x="393" y="-186"/>
      <point x="339" y="-231"/>
      <point x="276" y="-246" type="qcurve"/>
      <point x="243" y="-253"/>
      <point x="157" y="-265"/>
      <point x="101" y="-270" type="qcurve"/>
      <point x="100" y="-206" type="line"/>
      <point x="134" y="-203"/>
      <point x="187" y="-198"/>
      <point x="207" y="-195" type="qcurve"/>
      <point x="257" y="-189"/>
      <point x="297" y="-173"/>
      <point x="297" y="-155" type="qcurve"/>
      <point x="297" y="-140"/>
      <point x="241" y="-125"/>
      <point x="179" y="-122" type="qcurve"/>
      <point x="176" y="-112" type="line"/>
      <point x="237" y="-12" type="line"/>
      <point x="149" y="-1"/>
      <point x="59" y="117"/>
      <point x="59" y="219" type="qcurve"/>
      <point x="59" y="303"/>
      <point x="116" y="465"/>
      <point x="167" y="529" type="qcurve"/>
      <point x="223" y="597"/>
      <point x="372" y="670"/>
      <point x="458" y="670" type="qcurve"/>
      <point x="520" y="670"/>
      <point x="618" y="633"/>
      <point x="665" y="593" type="qcurve"/>
      <point x="589" y="488" type="line"/>
      <point x="544" y="524"/>
      <point x="485" y="550"/>
      <point x="447" y="550" type="qcurve"/>
      <point x="400" y="550"/>
      <point x="305" y="488"/>
      <point x="269" y="434" type="qcurve"/>
      <point x="239" y="388"/>
      <point x="207" y="281"/>
      <point x="207" y="225" type="qcurve"/>
      <point x="207" y="169"/>
      <point x="256" y="105"/>
      <point x="297" y="105" type="qcurve"/>
      <point x="333" y="105"/>
      <point x="414" y="132"/>
      <point x="473" y="164" type="qcurve"/>
      <point x="530" y="60" type="line"/>
      <point x="470" y="25"/>
      <point x="355" y="-13"/>
      <point x="298" y="-15" type="qcurve"/>
      <point x="270" y="-62" type="line"/>
      <point x="333" y="-69"/>
      <point x="393" y="-107"/>
    </contour>
  </outline>
</glyph>
<glyph name="Eth" format="2">
  <advance width="614"/>
  <unicode hex="00D0"/>
  <outline>
    <contour>
      <point x="114" y="292" type="line"/>
      <point x="37" y="292" type="line"/>
      <point x="59" y="368" type="line"/>
      <point x="136" y="368" type="line"/>
      <point x="218" y="655" type="line"/>
      <point x="312" y="655" type="line"/>
      <point x="400" y="655"/>
      <point x="519" y="620"/>
      <point x="556" y="583" type="qcurve"/>
      <point x="584" y="555"/>
      <point x="612" y="478"/>
      <point x="612" y="429" type="qcurve"/>
      <point x="612" y="342"/>
      <point x="555" y="196"/>
      <point x="500" y="141" type="qcurve"/>
      <point x="429" y="70"/>
      <point x="230" y="0"/>
      <point x="100" y="0" type="qcurve"/>
      <point x="30" y="0" type="line"/>
    </contour>
    <contour>
      <point x="363" y="368" type="line"/>
      <point x="341" y="292" type="line"/>
      <point x="258" y="292" type="line"/>
      <point x="210" y="125" type="line"/>
      <point x="327" y="144"/>
      <point x="464" y="306"/>
      <point x="464" y="422" type="qcurve"/>
      <point x="464" y="486"/>
      <point x="404" y="537"/>
      <point x="329" y="537" type="qcurve"/>
      <point x="328" y="537" type="line"/>
      <point x="280" y="368" type="line"/>
    </contour>
  </outline>
</glyph>
<glyph name="Thorn" format="2">
  <advance width="614"/>
  <unicode hex="00DE"/>
  <outline>
    <contour>
      <point x="10" y="0" type="line"/>
      <point x="198" y="655" type="line"/>
      <point x="343" y="655" type="line"/>
      <point x="307" y="528" type="line"/>
      <point x="420" y="528" type="line"/>
      <point x="509" y="528"/>
      <point x="609" y="436"/>
      <point x="609" y="357" type="qcurve"/>
      <point x="609" y="313"/>
      <point x="577" y="232"/>
      <point x="547" y="202" type="qcurve"/>
      <point x="509" y="164"/>
      <point x="383" y="126"/>
      <point x="292" y="126" type="qcurve"/>
      <point x="191" y="126" type="line"/>
      <point x="155" y="0" type="line"/>
    </contour>
    <contour>
      <point x="459" y="352" type="qcurve"/>
      <point x="459" y="380"/>
      <point x="424" y="408"/>
      <point x="388" y="408" type="qcurve"/>
      <point x="272" y="408" type="line"/>
      <point x="225" y="243" type="line"/>
      <point x="336" y="243" type="line"/>
      <point x="393" y="243"/>
      <point x="459" y="302"/>
    </contour>
  </outline>
</glyph>
<glyph name="ccedilla" format="2">
  <advance width="614"/>
  <unicode hex="00E7"/>
  <outline>
    <contour>
      <point x="377" y="368" type="qcurve"/>
      <point x="342" y="368"/>
      <point x="281" y="343"/>
      <point x="257" y="319" type="qcurve"/>
      <point x="231" y="293"/>
      <point x="203" y="227"/>
      <point x="203" y="193" type="qcurve"/>
      <point x="203" y="153"/>
      <point x="252" y="108"/>
      <point x="294" y="108" type="qcurve"/>
      <point x="333" y="108"/>
      <point x="414" y="130"/>
      <point x="477" y="158" type="qcurve"/>
      <point x="519" y="46" type="line"/>
      <point x="461" y="15"/>
      <point x="336" y="-14"/>
      <point x="256" y="-14" type="qcurve"/>
      <point x="227" y="-62" type="line"/>
      <point x="290" y="-69"/>
      <point x="350" y="-107"/>
      <point x="350" y="-140" type="qcurve"/>
      <point x="350" y="-186"/>
      <point x="296" y="-231"/>
      <point x="233" y="-246" type="qcurve"/>
      <point x="200" y="-253"/>
      <point x="114" y="-265"/>
      <point x="58" y="-270" type="qcurve"/>
      <point x="57" y="-206" type="line"/>
      <point x="91" y="-203"/>
      <point x="144" y="-198"/>
      <point x="164" y="-195" type="qcurve"/>
      <point x="214" y="-189"/>
      <point x="254" y="-173"/>
      <point x="254" y="-155" type="qcurve"/>
      <point x="254" y="-140"/>
      <point x="198" y="-125"/>
      <point x="136" y="-122" type="qcurve"/>
      <point x="133" y="-112" type="line"/>
      <point x="197" y="-6" type="line"/>
      <point x="123" y="10"/>
      <point x="43" y="105"/>
      <point x="43" y="178" type="qcurve"/>
      <point x="43" y="238"/>
      <point x="92" y="354"/>
      <point x="135" y="397" type="qcurve"/>
      <point x="181" y="443"/>
      <point x="297" y="490"/>
      <point x="365" y="490" type="qcurve"/>
      <point x="434" y="490"/>
      <point x="540" y="463"/>
      <point x="600" y="432" type="qcurve"/>
      <point x="544" y="319" type="line"/>
      <point x="486" y="346"/>
      <point x="414" y="368"/>
    </contour>
  </outline>
</glyph>
<glyph name="eth" format="2">
  <advance width="614"/>
  <unicode hex="00F0"/>
  <outline>
    <contour>
      <point x="428" y="688" type="qcurve"/>
      <point x="514" y="767" type="line"/>
      <point x="562" y="720" type="line"/>
      <point x="484" y="655" type="line"/>
      <point x="542" y="611"/>
      <point x="604" y="481"/>
      <point x="604" y="404" type="qcurve"/>
      <point x="604" y="304"/>
      <point x="545" y="141"/>
      <point x="488" y="84" type="qcurve"/>
      <point x="440" y="36"/>
      <point x="314" y="-15"/>
      <point x="242" y="-15" type="qcurve"/>
      <point x="144" y="-15"/>
      <point x="28" y="82"/>
      <point x="28" y="165" type="qcurve"/>
      <point x="28" y="276"/>
      <point x="178" y="421"/>
      <point x="297" y="421" type="qcurve"/>
      <point x="343" y="421"/>
      <point x="418" y="404"/>
      <point x="461" y="385" type="qcurve"/>
      <point x="462" y="401"/>
      <point x="463" y="417"/>
      <point x="463" y="423" type="qcurve"/>
      <point x="463" y="471"/>
      <point x="429" y="537"/>
      <point x="393" y="561" type="qcurve"/>
      <point x="279" y="457" type="line"/>
      <point x="234" y="503" type="line"/>
      <point x="337" y="591" type="line"/>
      <point x="320" y="598"/>
      <point x="276" y="612"/>
      <point x="244" y="620" type="qcurve"/>
      <point x="309" y="725" type="line"/>
      <point x="344" y="719"/>
      <point x="403" y="700"/>
    </contour>
    <contour>
      <point x="328" y="316" type="qcurve"/>
      <point x="265" y="316"/>
      <point x="184" y="236"/>
      <point x="184" y="174" type="qcurve"/>
      <point x="184" y="142"/>
      <point x="223" y="105"/>
      <point x="258" y="105" type="qcurve"/>
      <point x="286" y="105"/>
      <point x="338" y="128"/>
      <point x="361" y="151" type="qcurve"/>
      <point x="385" y="175"/>
      <point x="423" y="244"/>
      <point x="437" y="290" type="qcurve"/>
      <point x="410" y="304"/>
      <point x="359" y="316"/>
    </contour>
  </outline>
</glyph>
<glyph name="oslash" format="2">
  <advance width="614"/>
  <unicode hex="00F8"/>
  <outline>
    <contour>
      <point x="39" y="191" type="qcurve"/>
      <point x="39" y="319"/>
      <point x="222" y="492"/>
      <point x="356" y="492" type="qcurve"/>
      <point x="385" y="492"/>
      <point x="441" y="478"/>
      <point x="465" y="464" type="qcurve"/>
      <point x="540" y="548" type="line"/>
      <point x="682" y="548" type="line"/>
      <point x="534" y="406" type="line"/>
      <point x="554" y="380"/>
      <point x="575" y="319"/>
      <point x="575" y="286" type="qcurve"/>
      <point x="575" y="158"/>
      <point x="392" y="-15"/>
      <point x="258" y="-15" type="qcurve"/>
      <point x="229" y="-15"/>
      <point x="174" y="-1"/>
      <point x="148" y="12" type="qcurve"/>
      <point x="74" y="-71" type="line"/>
      <point x="-67" y="-71" type="line"/>
      <point x="80" y="69" type="line"/>
      <point x="60" y="96"/>
      <point x="39" y="157"/>
    </contour>
    <contour>
      <point x="189" y="200" type="qcurve"/>
      <point x="189" y="156"/>
      <point x="241" y="104"/>
      <point x="284" y="104" type="qcurve"/>
      <point x="342" y="104"/>
      <point x="425" y="208"/>
      <point x="425" y="277" type="qcurve"/>
      <point x="425" y="321"/>
      <point x="373" y="373"/>
      <point x="330" y="373" type="qcurve"/>
      <point x="272" y="373"/>
      <point x="189" y="269"/>
    </contour>
  </outline>
</glyph>
<glyph name="Aogonek" format="2">
  <advance width="614"/>
  <unicode hex="0104"/>
  <outline>
    <contour>
      <point x="183" y="126" type="line"/>
      <point x="111" y="0" type="line"/>
      <point x="-40" y="0" type="line"/>
      <point x="336" y="655" type="line"/>
      <point x="514" y="655" type="line"/>
      <point x="520" y="0" type="line"/>
      <point x="486" y="0" type="line"/>
      <point x="432" y="-57"/>
      <point x="397" y="-102"/>
      <point x="397" y="-118" type="qcurve"/>
      <point x="397" y="-127"/>
      <point x="412" y="-136"/>
      <point x="431" y="-137" type="qcurve"/>
      <point x="485" y="-141" type="line"/>
      <point x="448" y="-234" type="line"/>
      <point x="376" y="-231" type="line"/>
      <point x="323" y="-229"/>
      <point x="275" y="-199"/>
      <point x="275" y="-167" type="qcurve"/>
      <point x="275" y="-136"/>
      <point x="339" y="-63"/>
      <point x="417" y="0" type="qcurve"/>
      <point x="380" y="0" type="line"/>
      <point x="381" y="126" type="line"/>
    </contour>
    <contour>
      <point x="393" y="515" type="line"/>
      <point x="244" y="239" type="line"/>
      <point x="389" y="239" type="line"/>
    </contour>
  </outline>
</glyph>
<glyph name="aogonek" format="2">
  <advance width="614"/>
  <unicode hex="0105"/>
  <outline>
    <contour>
      <point x="223" y="-167" type="qcurve"/>
      <point x="223" y="-134"/>
      <point x="297" y="-53"/>
      <point x="388" y="18" type="qcurve"/>
      <point x="376" y="24"/>
      <point x="358" y="39"/>
      <point x="351" y="49" type="qcurve"/>
      <point x="345" y="49" type="line"/>
      <point x="296" y="18"/>
      <point x="197" y="-9"/>
      <point x="136" y="-9" type="qcurve"/>
      <point x="80" y="-9"/>
      <point x="17" y="49"/>
      <point x="17" y="99" type="qcurve"/>
      <point x="17" y="137"/>
      <point x="42" y="211"/>
      <point x="63" y="232" type="qcurve"/>
      <point x="90" y="259"/>
      <point x="185" y="283"/>
      <point x="279" y="289" type="qcurve"/>
      <point x="409" y="297" type="line"/>
      <point x="409" y="297" type="line"/>
      <point x="416" y="317"/>
      <point x="419" y="331"/>
      <point x="419" y="338" type="qcurve"/>
      <point x="419" y="359"/>
      <point x="375" y="377"/>
      <point x="325" y="377" type="qcurve"/>
      <point x="293" y="377"/>
      <point x="192" y="369"/>
      <point x="133" y="361" type="qcurve"/>
      <point x="164" y="475" type="line"/>
      <point x="224" y="482"/>
      <point x="327" y="490"/>
      <point x="365" y="490" type="qcurve"/>
      <point x="466" y="490"/>
      <point x="563" y="436"/>
      <point x="563" y="380" type="qcurve"/>
      <point x="563" y="364"/>
      <point x="556" y="326"/>
      <point x="548" y="304" type="qcurve"/>
      <point x="504" y="180" type="line"/>
      <point x="497" y="161"/>
      <point x="492" y="140"/>
      <point x="492" y="133" type="qcurve"/>
      <point x="492" y="122"/>
      <point x="506" y="110"/>
      <point x="524" y="107" type="qcurve"/>
      <point x="555" y="101" type="line"/>
      <point x="523" y="-9" type="line"/>
      <point x="498" y="-7"/>
      <point x="453" y="-2"/>
      <point x="436" y="1" type="qcurve"/>
      <point x="381" y="-56"/>
      <point x="345" y="-102"/>
      <point x="345" y="-118" type="qcurve"/>
      <point x="345" y="-127"/>
      <point x="360" y="-136"/>
      <point x="379" y="-137" type="qcurve"/>
      <point x="433" y="-141" type="line"/>
      <point x="396" y="-234" type="line"/>
      <point x="324" y="-231" type="line"/>
      <point x="271" y="-229"/>
      <point x="223" y="-199"/>
    </contour>
    <contour>
      <point x="163" y="127" type="qcurve"/>
      <point x="163" y="112"/>
      <point x="183" y="94"/>
      <point x="200" y="94" type="qcurve"/>
      <point x="237" y="94"/>
      <point x="328" y="124"/>
      <point x="359" y="148" type="qcurve"/>
      <point x="381" y="214" type="line"/>
      <point x="296" y="206" type="line"/>
      <point x="245" y="202"/>
      <point x="194" y="190"/>
      <point x="183" y="179" type="qcurve"/>
      <point x="173" y="169"/>
      <point x="163" y="144"/>
    </contour>
  </outline>
</glyph>
<glyph name="eogonek" format="2">
  <advance width="614"/>
  <unicode hex="0119"/>
  <outline>
    <contour>
      <point x="431" y="103" type="line"/>
      <point x="291" y="102"/>
      <point x="193" y="129"/>
      <point x="193" y="167" type="qcurve"/>
      <point x="193" y="168"/>
      <point x="193" y="170"/>
      <point x="193" y="171" type="qcurve"/>
      <point x="346" y="182" type="line"/>
      <point x="467" y="192"/>
      <point x="582" y="273"/>
      <point x="582" y="348" type="qcurve"/>
      <point x="582" y="416"/>
      <point x="481" y="492"/>
      <point x="390" y="492" type="qcurve"/>
      <point x="324" y="492"/>
      <point x="203" y="445"/>
      <point x="155" y="400" type="qcurve"/>
      <point x="104" y="354"/>
      <point x="47" y="234"/>
      <point x="47" y="175" type="qcurve"/>
      <point x="47" y="102"/>
      <point x="106" y="26"/>
      <point x="170" y="8" type="qcurve"/>
      <point x="209" y="-3"/>
      <point x="298" y="-11"/>
      <point x="328" y="-12" type="qcurve"/>
      <point x="258" y="-68"/>
      <point x="200" y="-137"/>
      <point x="200" y="-167" type="qcurve"/>
      <point x="200" y="-199"/>
      <point x="248" y="-229"/>
      <point x="301" y="-231" type="qcurve"/>
      <point x="373" y="-234" type="line"/>
      <point x="410" y="-141" type="line"/>
      <point x="356" y="-137" type="line"/>
      <point x="337" y="-136"/>
      <point x="322" y="-127"/>
      <point x="322" y="-118" type="qcurve"/>
      <point x="322" y="-102"/>
      <point x="355" y="-59"/>
      <point x="398" y="-13" type="qcurve"/>
    </contour>
    <contour>
      <point x="202" y="259" type="line"/>
      <point x="222" y="312"/>
      <point x="318" y="379"/>
      <point x="372" y="379" type="qcurve"/>
      <point x="404" y="379"/>
      <point x="440" y="355"/>
      <point x="440" y="333" type="qcurve"/>
      <point x="440" y="307"/>
      <point x="396" y="281"/>
      <point x="346" y="275" type="qcurve"/>
    </contour>
  </outline>
</glyph>
<glyph name="Hbar" format="2">
  <advance width="614"/>
  <unicode hex="0126"/>
  <outline>
    <contour>
      <point x="163" y="463" type="line"/>
      <point x="86" y="463" type="line"/>
      <point x="107" y="536" type="line"/>
      <point x="184" y="536" type="line"/>
      <point x="218" y="655" type="line"/>
      <point x="357" y="655" type="line"/>
      <point x="321" y="531" type="line"/>
      <point x="461" y="531" type="line"/>
      <point x="497" y="655" type="line"/>
      <point x="636" y="655" type="line"/>
      <point x="602" y="536" type="line"/>
      <point x="679" y="536" type="line"/>
      <point x="658" y="463" type="line"/>
      <point x="581" y="463" type="line"/>
      <point x="448" y="0" type="line"/>
      <point x="309" y="0" type="line"/>
      <point x="374" y="225" type="line"/>
      <point x="234" y="225" type="line"/>
      <point x="169" y="0" type="line"/>
      <point x="30" y="0" type="line"/>
    </contour>
    <contour>
      <point x="303" y="468" type="line"/>
      <point x="265" y="335" type="line"/>
      <point x="405" y="335" type="line"/>
      <point x="443" y="468" type="line"/>
    </contour>
  </outline>
</glyph>
<glyph name="hbar" format="2">
  <advance width="614"/>
  <unicode hex="0127"/>
  <outline>
    <contour>
      <point x="464" y="592" type="line"/>
      <point x="442" y="516" type="line"/>
      <point x="314" y="516" type="line"/>
      <point x="262" y="334" type="line"/>
      <point x="337" y="390"/>
      <point x="415" y="428"/>
      <point x="454" y="428" type="qcurve"/>
      <point x="506" y="428"/>
      <point x="560" y="379"/>
      <point x="560" y="331" type="qcurve"/>
      <point x="560" y="316"/>
      <point x="555" y="284"/>
      <point x="550" y="267" type="qcurve"/>
      <point x="473" y="0" type="line"/>
      <point x="328" y="0" type="line"/>
      <point x="397" y="240" type="line"/>
      <point x="399" y="246"/>
      <point x="401" y="258"/>
      <point x="401" y="264" type="qcurve"/>
      <point x="401" y="277"/>
      <point x="388" y="291"/>
      <point x="375" y="291" type="qcurve"/>
      <point x="356" y="291"/>
      <point x="299" y="253"/>
      <point x="220" y="188" type="qcurve"/>
      <point x="166" y="0" type="line"/>
      <point x="21" y="0" type="line"/>
      <point x="169" y="516" type="line"/>
      <point x="92" y="516" type="line"/>
      <point x="114" y="592" type="line"/>
      <point x="191" y="592" type="line"/>
      <point x="225" y="710" type="line"/>
      <point x="370" y="710" type="line"/>
      <point x="336" y="592" type="line"/>
    </contour>
  </outline>
</glyph>
<glyph name="dotlessi" format="2">
  <advance width="614"/>
  <unicode hex="0131"/>
  <outline>
    <contour>
      <point x="25" y="0" type="line"/>
      <point x="60" y="122" type="line"/>
      <point x="208" y="122" type="line"/>
      <point x="291" y="355" type="line"/>
      <point x="147" y="355" type="line"/>
      <point x="182" y="477" type="line"/>
      <point x="479" y="477" type="line"/>
      <point x="353" y="122" type="line"/>
      <point x="519" y="122" type="line"/>
      <point x="484" y="0" type="line"/>
    </contour>
  </outline>
</glyph>
<glyph name="Lslash" format="2">
  <advance width="614"/>
  <unicode hex="0141"/>
  <outline>
    <contour>
      <point x="109" y="241" type="line"/>
      <point x="16" y="186" type="line"/>
      <point x="43" y="279" type="line"/>
      <point x="136" y="333" type="line"/>
      <point x="228" y="655" type="line"/>
      <point x="373" y="655" type="line"/>
      <point x="307" y="424" type="line"/>
      <point x="521" y="550" type="line"/>
      <point x="494" y="457" type="line"/>
      <point x="280" y="331" type="line"/>
      <point x="219" y="119" type="line"/>
      <point x="519" y="119" type="line"/>
      <point x="485" y="0" type="line"/>
      <point x="40" y="0" type="line"/>
    </contour>
  </outline>
</glyph>
<glyph name="lslash" format="2">
  <advance width="614"/>
  <unicode hex="0142"/>
  <outline>
    <contour>
      <point x="218" y="273" type="line"/>
      <point x="64" y="189" type="line"/>
      <point x="94" y="292" type="line"/>
      <point x="257" y="380" type="line"/>
      <point x="331" y="588" type="line"/>
      <point x="167" y="588" type="line"/>
      <point x="202" y="710" type="line"/>
      <point x="518" y="710" type="line"/>
      <point x="429" y="457" type="line"/>
      <point x="622" y="562" type="line"/>
      <point x="593" y="459" type="line"/>
      <point x="392" y="350" type="line"/>
      <point x="359" y="257" type="line"/>
      <point x="345" y="218"/>
      <point x="336" y="183"/>
      <point x="336" y="167" type="qcurve"/>
      <point x="336" y="143"/>
      <point x="369" y="121"/>
      <point x="408" y="119" type="qcurve"/>
      <point x="518" y="115" type="line"/>
      <point x="482" y="-9" type="line"/>
      <point x="368" y="-5" type="line"/>
      <point x="268" y="-1"/>
      <point x="186" y="61"/>
      <point x="186" y="132" type="qcurve"/>
      <point x="186" y="158"/>
      <point x="201" y="225"/>
      <point x="218" y="273" type="qcurve"/>
    </contour>
  </outline>
</glyph>
<glyph name="Eng" format="2">
  <advance width="614"/>
  <unicode hex="014A"/>
  <outline>
    <contour>
      <point x="253" y="423" type="line"/>
      <point x="138" y="0" type="line"/>
      <point x="6" y="0" type="line"/>
      <point x="194" y="655" type="line"/>
      <point x="333" y="655" type="line"/>
      <point x="414" y="239" type="line"/>
      <point x="528" y="655" type="line"/>
      <point x="660" y="655" type="line"/>
      <point x="474" y="6" type="line"/>
      <point x="435" y="-129"/>
      <point x="325" y="-223"/>
      <point x="196" y="-230" type="qcurve"/>
      <point x="89" y="-236" type="line"/>
      <point x="89" y="-127" type="line"/>
      <point x="199" y="-119" type="line"/>
      <point x="257" y="-115"/>
      <point x="323" y="-72"/>
      <point x="340" y="-27" type="qcurve"/>
    </contour>
  </outline>
</glyph>
<glyph name="eng" format="2">
  <advance width="614"/>
  <unicode hex="014B"/>
  <outline>
    <contour>
      <point x="567" y="327" type="qcurve"/>
      <point x="484" y="37" type="line"/>
      <point x="462" y="-39"/>
      <point x="414" y="-139"/>
      <point x="380" y="-169" type="qcurve"/>
      <point x="346" y="-200"/>
      <point x="247" y="-228"/>
      <point x="175" y="-232" type="qcurve"/>
      <point x="99" y="-236" type="line"/>
      <point x="99" y="-112" type="line"/>
      <point x="181" y="-107" type="line"/>
      <point x="217" y="-105"/>
      <point x="267" y="-90"/>
      <point x="285" y="-73" type="qcurve"/>
      <point x="303" y="-55"/>
      <point x="331" y="6"/>
      <point x="344" y="54" type="qcurve"/>
      <point x="414" y="300" type="line"/>
      <point x="416" y="306"/>
      <point x="418" y="318"/>
      <point x="418" y="324" type="qcurve"/>
      <point x="418" y="337"/>
      <point x="405" y="351"/>
      <point x="392" y="351" type="qcurve"/>
      <point x="369" y="351"/>
      <point x="298" y="306"/>
      <point x="226" y="248" type="qcurve"/>
      <point x="155" y="0" type="line"/>
      <point x="10" y="0" type="line"/>
      <point x="147" y="477" type="line"/>
      <point x="273" y="477" type="line"/>
      <point x="255" y="384" type="line"/>
      <point x="334" y="444"/>
      <point x="424" y="488"/>
      <point x="471" y="488" type="qcurve"/>
      <point x="523" y="488"/>
      <point x="577" y="438"/>
      <point x="577" y="391" type="qcurve"/>
      <point x="577" y="376"/>
      <point x="572" y="344"/>
    </contour>
  </outline>
</glyph>
<glyph name="oe" format="2">
  <advance width="614"/>
  <unicode hex="0153"/>
  <outline>
    <contour>
      <point x="261" y="57" type="qcurve"/>
      <point x="233" y="23"/>
      <point x="167" y="-13"/>
      <point x="133" y="-13" type="qcurve"/>
      <point x="60" y="-13"/>
      <point x="-2" y="62"/>
      <point x="-2" y="149" type="qcurve"/>
      <point x="-2" y="234"/>
      <point x="50" y="379"/>
      <point x="97" y="426" type="qcurve"/>
      <point x="129" y="458"/>
      <point x="190" y="486"/>
      <point x="227" y="486" type="qcurve"/>
      <point x="275" y="486"/>
      <point x="336" y="435"/>
      <point x="346" y="386" type="qcurve"/>
      <point x="382" y="434"/>
      <point x="474" y="486"/>
      <point x="522" y="486" type="qcurve"/>
      <point x="576" y="486"/>
      <point x="634" y="432"/>
      <point x="634" y="382" type="qcurve"/>
      <point x="634" y="287"/>
      <point x="506" y="204"/>
      <point x="359" y="191" type="qcurve"/>
      <point x="358" y="177"/>
      <point x="357" y="161"/>
      <point x="357" y="154" type="qcurve"/>
      <point x="357" y="119"/>
      <point x="420" y="93"/>
      <point x="504" y="93" type="qcurve"/>
      <point x="472" y="-5" type="line"/>
      <point x="382" y="-5"/>
      <point x="283" y="24"/>
    </contour>
    <contour>
      <point x="508" y="354" type="qcurve"/>
      <point x="508" y="371"/>
      <point x="493" y="386"/>
      <point x="476" y="386" type="qcurve"/>
      <point x="448" y="386"/>
      <point x="394" y="320"/>
      <point x="376" y="266" type="qcurve"/>
      <point x="445" y="273"/>
      <point x="508" y="314"/>
    </contour>
    <contour>
      <point x="204" y="366" type="qcurve"/>
      <point x="178" y="340"/>
      <point x="136" y="198"/>
      <point x="136" y="138" type="qcurve"/>
      <point x="136" y="115"/>
      <point x="149" y="95"/>
      <point x="165" y="95" type="qcurve"/>
      <point x="173" y="95"/>
      <point x="187" y="101"/>
      <point x="194" y="108" type="qcurve"/>
      <point x="220" y="134"/>
      <point x="262" y="277"/>
      <point x="262" y="339" type="qcurve"/>
      <point x="262" y="359"/>
      <point x="248" y="379"/>
      <point x="233" y="379" type="qcurve"/>
      <point x="225" y="379"/>
      <point x="211" y="373"/>
    </contour>
  </outline>
</glyph>
<glyph name="scedilla" format="2">
  <advance width="614"/>
  <unicode hex="015F"/>
  <outline>
    <contour>
      <point x="521" y="148" type="qcurve"/>
      <point x="521" y="75"/>
      <point x="376" y="-14"/>
      <point x="253" y="-14" type="qcurve"/>
      <point x="252" y="-14"/>
      <point x="251" y="-14"/>
      <point x="250" y="-14" type="qcurve"/>
      <point x="222" y="-62" type="line"/>
      <point x="285" y="-69"/>
      <point x="345" y="-107"/>
      <point x="345" y="-140" type="qcurve"/>
      <point x="345" y="-186"/>
      <point x="291" y="-231"/>
      <point x="228" y="-246" type="qcurve"/>
      <point x="195" y="-253"/>
      <point x="109" y="-265"/>
      <point x="53" y="-270" type="qcurve"/>
      <point x="52" y="-206" type="line"/>
      <point x="86" y="-203"/>
      <point x="139" y="-198"/>
      <point x="159" y="-195" type="qcurve"/>
      <point x="209" y="-189"/>
      <point x="249" y="-173"/>
      <point x="249" y="-155" type="qcurve"/>
      <point x="249" y="-140"/>
      <point x="193" y="-125"/>
      <point x="131" y="-122" type="qcurve"/>
      <point x="128" y="-112" type="line"/>
      <point x="189" y="-13" type="line"/>
      <point x="151" y="-11"/>
      <point x="73" y="-3"/>
      <point x="8" y="6" type="qcurve"/>
      <point x="34" y="123" type="line"/>
      <point x="103" y="112"/>
      <point x="224" y="99"/>
      <point x="258" y="99" type="qcurve"/>
      <point x="317" y="99"/>
      <point x="374" y="117"/>
      <point x="374" y="137" type="qcurve"/>
      <point x="374" y="152"/>
      <point x="354" y="167"/>
      <point x="316" y="179" type="qcurve"/>
      <point x="250" y="199" type="line"/>
      <point x="166" y="225"/>
      <point x="104" y="282"/>
      <point x="104" y="338" type="qcurve"/>
      <point x="104" y="413"/>
      <point x="236" y="491"/>
      <point x="365" y="491" type="qcurve"/>
      <point x="411" y="491"/>
      <point x="521" y="483"/>
      <point x="572" y="475" type="qcurve"/>
      <point x="539" y="359" type="line"/>
      <point x="483" y="368"/>
      <point x="390" y="378"/>
      <point x="360" y="378" type="qcurve"/>
      <point x="302" y="378"/>
      <point x="252" y="364"/>
      <point x="252" y="346" type="qcurve"/>
      <point x="252" y="334"/>
      <point x="264" y="322"/>
      <point x="305" y="309" type="qcurve"/>
      <point x="368" y="289" type="line"/>
      <point x="458" y="261"/>
      <point x="521" y="204"/>
    </contour>
  </outline>
</glyph>
<glyph name="tcedilla" format="2">
  <advance width="614"/>
  <unicode hex="0163"/>
  <outline>
    <contour>
      <point x="153" y="-107" type="line"/>
      <point x="231" y="22" type="line"/>
      <point x="196" y="40"/>
      <point x="162" y="95"/>
      <point x="162" y="137" type="qcurve"/>
      <point x="162" y="167"/>
      <point x="175" y="218"/>
      <point x="190" y="254" type="qcurve"/>
      <point x="231" y="355" type="line"/>
      <point x="78" y="355" type="line"/>
      <point x="113" y="477" type="line"/>
      <point x="280" y="477" type="line"/>
      <point x="346" y="640" type="line"/>
      <point x="485" y="640" type="line"/>
      <point x="422" y="477" type="line"/>
      <point x="588" y="477" type="line"/>
      <point x="553" y="355" type="line"/>
      <point x="375" y="355" type="line"/>
      <point x="334" y="250" type="line"/>
      <point x="324" y="225"/>
      <point x="314" y="189"/>
      <point x="314" y="177" type="qcurve"/>
      <point x="314" y="153"/>
      <point x="343" y="130"/>
      <point x="374" y="128" type="qcurve"/>
      <point x="491" y="119" type="line"/>
      <point x="456" y="-5" type="line"/>
      <point x="348" y="-1" type="line"/>
      <point x="328" y="0"/>
      <point x="297" y="3"/>
      <point x="284" y="6" type="qcurve"/>
      <point x="247" y="-57" type="line"/>
      <point x="310" y="-64"/>
      <point x="370" y="-102"/>
      <point x="370" y="-135" type="qcurve"/>
      <point x="370" y="-181"/>
      <point x="316" y="-226"/>
      <point x="253" y="-241" type="qcurve"/>
      <point x="220" y="-248"/>
      <point x="134" y="-260"/>
      <point x="78" y="-265" type="qcurve"/>
      <point x="77" y="-201" type="line"/>
      <point x="111" y="-198"/>
      <point x="164" y="-193"/>
      <point x="184" y="-190" type="qcurve"/>
      <point x="234" y="-184"/>
      <point x="274" y="-168"/>
      <point x="274" y="-150" type="qcurve"/>
      <point x="274" y="-135"/>
      <point x="218" y="-120"/>
      <point x="156" y="-117" type="qcurve"/>
    </contour>
  </outline>
</glyph>
<glyph name="tbar" format="2">
  <advance width="614"/>
  <unicode hex="0167"/>
  <outline>
    <contour>
      <point x="173" y="206" type="qcurve"/>
      <point x="96" y="206" type="line"/>
      <point x="118" y="282" type="line"/>
      <point x="201" y="282" type="line"/>
      <point x="235" y="365" type="line"/>
      <point x="82" y="365" type="line"/>
      <point x="113" y="477" type="line"/>
      <point x="280" y="477" type="line"/>
      <point x="346" y="640" type="line"/>
      <point x="485" y="640" type="line"/>
      <point x="422" y="477" type="line"/>
      <point x="588" y="477" type="line"/>
      <point x="557" y="365" type="line"/>
      <point x="379" y="365" type="line"/>
      <point x="347" y="282" type="line"/>
      <point x="468" y="282" type="line"/>
      <point x="446" y="206" type="line"/>
      <point x="318" y="206" type="line"/>
      <point x="314" y="196"/>
      <point x="311" y="180"/>
      <point x="311" y="173" type="qcurve"/>
      <point x="311" y="145"/>
      <point x="339" y="120"/>
      <point x="371" y="118" type="qcurve"/>
      <point x="488" y="109" type="line"/>
      <point x="456" y="-5" type="line"/>
      <point x="348" y="-1" type="line"/>
      <point x="254" y="2"/>
      <point x="162" y="70"/>
      <point x="162" y="137" type="qcurve"/>
      <point x="162" y="156"/>
      <point x="167" y="186"/>
    </contour>
  </outline>
</glyph>
<glyph name="Uogonek" format="2">
  <advance width="614"/>
  <unicode hex="0172"/>
  <outline>
    <contour>
      <point x="70" y="-172" type="qcurve"/>
      <point x="70" y="-142"/>
      <point x="131" y="-71"/>
      <point x="206" y="-10" type="qcurve"/>
      <point x="133" y="4"/>
      <point x="58" y="95"/>
      <point x="58" y="170" type="qcurve"/>
      <point x="58" y="192"/>
      <point x="69" y="249"/>
      <point x="83" y="296" type="qcurve"/>
      <point x="187" y="655" type="line"/>
      <point x="332" y="655" type="line"/>
      <point x="211" y="234" type="line"/>
      <point x="208" y="222"/>
      <point x="205" y="200"/>
      <point x="205" y="189" type="qcurve"/>
      <point x="205" y="155"/>
      <point x="247" y="119"/>
      <point x="287" y="119" type="qcurve"/>
      <point x="329" y="119"/>
      <point x="383" y="167"/>
      <point x="397" y="217" type="qcurve"/>
      <point x="523" y="655" type="line"/>
      <point x="667" y="655" type="line"/>
      <point x="538" y="207" type="line"/>
      <point x="505" y="93"/>
      <point x="376" y="-15"/>
      <point x="272" y="-15" type="qcurve"/>
      <point x="225" y="-64"/>
      <point x="192" y="-108"/>
      <point x="192" y="-123" type="qcurve"/>
      <point x="192" y="-132"/>
      <point x="207" y="-141"/>
      <point x="226" y="-142" type="qcurve"/>
      <point x="280" y="-146" type="line"/>
      <point x="243" y="-239" type="line"/>
      <point x="171" y="-236" type="line"/>
      <point x="118" y="-234"/>
      <point x="70" y="-204"/>
    </contour>
  </outline>
</glyph>
<glyph name="Schwa" format="2">
  <advance width="614"/>
  <unicode hex="018F"/>
  <outline>
    <contour>
      <point x="614" y="450" type="qcurve"/>
      <point x="614" y="414"/>
      <point x="600" y="329"/>
      <point x="586" y="280" type="qcurve"/>
      <point x="543" y="129"/>
      <point x="377" y="-15"/>
      <point x="249" y="-15" type="qcurve"/>
      <point x="152" y="-15"/>
      <point x="45" y="74"/>
      <point x="45" y="155" type="qcurve"/>
      <point x="45" y="206"/>
      <point x="73" y="327"/>
      <point x="100" y="389" type="qcurve"/>
      <point x="460" y="389" type="line"/>
      <point x="463" y="408"/>
      <point x="465" y="434"/>
      <point x="465" y="444" type="qcurve"/>
      <point x="465" y="498"/>
      <point x="404" y="545"/>
      <point x="332" y="545" type="qcurve"/>
      <point x="307" y="545"/>
      <point x="253" y="541"/>
      <point x="222" y="536" type="qcurve"/>
      <point x="264" y="655" type="line"/>
      <point x="306" y="662"/>
      <point x="341" y="665"/>
      <point x="366" y="665" type="qcurve"/>
      <point x="487" y="665"/>
      <point x="614" y="554"/>
    </contour>
    <contour>
      <point x="189" y="177" type="qcurve"/>
      <point x="189" y="141"/>
      <point x="224" y="105"/>
      <point x="260" y="105" type="qcurve"/>
      <point x="322" y="105"/>
      <point x="397" y="184"/>
      <point x="429" y="278" type="qcurve"/>
      <point x="209" y="278" type="line"/>
      <point x="199" y="250"/>
      <point x="189" y="197"/>
    </contour>
  </outline>
</glyph>
<glyph name="Ohorn" format="2">
  <advance width="614"/>
  <unicode hex="01A0"/>
  <outline>
    <contour>
      <point x="78" y="356" type="qcurve"/>
      <point x="119" y="502"/>
      <point x="286" y="655"/>
      <point x="404" y="655" type="qcurve"/>
      <point x="530" y="655" type="line"/>
      <point x="586" y="655"/>
      <point x="635" y="695"/>
      <point x="658" y="768" type="qcurve"/>
      <point x="786" y="768" type="line"/>
      <point x="750" y="646"/>
      <point x="685" y="574"/>
      <point x="622" y="574" type="qcurve"/>
      <point x="609" y="574"/>
      <point x="582" y="578"/>
      <point x="567" y="583" type="qcurve"/>
      <point x="558" y="573" type="line"/>
      <point x="591" y="547"/>
      <point x="623" y="482"/>
      <point x="623" y="439" type="qcurve"/>
      <point x="623" y="393"/>
      <point x="615" y="344"/>
      <point x="599" y="285" type="qcurve"/>
      <point x="557" y="138"/>
      <point x="389" y="-15"/>
      <point x="270" y="-15" type="qcurve"/>
      <point x="164" y="-15"/>
      <point x="54" y="89"/>
      <point x="54" y="188" type="qcurve"/>
      <point x="54" y="241"/>
      <point x="64" y="307"/>
    </contour>
    <contour>
      <point x="201" y="194" type="qcurve"/>
      <point x="201" y="150"/>
      <point x="240" y="105"/>
      <point x="279" y="105" type="qcurve"/>
      <point x="337" y="105"/>
      <point x="422" y="204"/>
      <point x="451" y="303" type="qcurve"/>
      <point x="464" y="348"/>
      <point x="476" y="418"/>
      <point x="476" y="453" type="qcurve"/>
      <point x="476" y="494"/>
      <point x="435" y="535"/>
      <point x="394" y="535" type="qcurve"/>
      <point x="338" y="535"/>
      <point x="254" y="437"/>
      <point x="226" y="338" type="qcurve"/>
      <point x="212" y="290"/>
      <point x="201" y="223"/>
    </contour>
  </outline>
</glyph>
<glyph name="uhorn" format="2">
  <advance width="614"/>
  <unicode hex="01B0"/>
  <outline>
    <contour>
      <point x="468" y="0" type="line"/>
      <point x="342" y="0" type="line"/>
      <point x="360" y="93" type="line"/>
      <point x="281" y="33"/>
      <point x="191" y="-11"/>
      <point x="144" y="-11" type="qcurve"/>
      <point x="92" y="-11"/>
      <point x="38" y="38"/>
      <point x="38" y="85" type="qcurve"/>
      <point x="38" y="101"/>
      <point x="43" y="133"/>
      <point x="48" y="150" type="qcurve"/>
      <point x="142" y="477" type="line"/>
      <point x="287" y="477" type="line"/>
      <point x="201" y="177" type="line"/>
      <point x="199" y="170"/>
      <point x="197" y="158"/>
      <point x="197" y="152" type="qcurve"/>
      <point x="197" y="139"/>
      <point x="210" y="126"/>
      <point x="223" y="126" type="qcurve"/>
      <point x="246" y="126"/>
      <point x="317" y="171"/>
      <point x="389" y="229" type="qcurve"/>
      <point x="460" y="477" type="line"/>
      <point x="512" y="477" type="line"/>
      <point x="563" y="477"/>
      <point x="618" y="524"/>
      <point x="640" y="589" type="qcurve"/>
      <point x="768" y="589" type="line"/>
      <point x="738" y="492"/>
      <point x="645" y="396"/>
      <point x="582" y="396" type="qcurve"/>
    </contour>
  </outline>
</glyph>
<glyph name="Oogonek" format="2">
  <advance width="614"/>
  <unicode hex="01EA"/>
  <outline>
    <contour>
      <point x="80" y="-172" type="qcurve"/>
      <point x="80" y="-142"/>
      <point x="141" y="-71"/>
      <point x="215" y="-11" type="qcurve"/>
      <point x="136" y="2"/>
      <point x="54" y="105"/>
      <point x="54" y="192" type="qcurve"/>
      <point x="54" y="247"/>
      <point x="64" y="313"/>
      <point x="78" y="363" type="qcurve"/>
      <point x="121" y="514"/>
      <point x="289" y="670"/>
      <point x="407" y="670" type="qcurve"/>
      <point x="513" y="670"/>
      <point x="623" y="564"/>
      <point x="623" y="463" type="qcurve"/>
      <point x="623" y="408"/>
      <point x="613" y="342"/>
      <point x="599" y="292" type="qcurve"/>
      <point x="557" y="146"/>
      <point x="395" y="-11"/>
      <point x="282" y="-15" type="qcurve"/>
      <point x="235" y="-64"/>
      <point x="202" y="-108"/>
      <point x="202" y="-123" type="qcurve"/>
      <point x="202" y="-132"/>
      <point x="217" y="-141"/>
      <point x="236" y="-142" type="qcurve"/>
      <point x="290" y="-146" type="line"/>
      <point x="253" y="-239" type="line"/>
      <point x="181" y="-236" type="line"/>
      <point x="128" y="-234"/>
      <point x="80" y="-204"/>
    </contour>
    <contour>
      <point x="201" y="198" type="qcurve"/>
      <point x="201" y="152"/>
      <point x="240" y="105"/>
      <point x="279" y="105" type="qcurve"/>
      <point x="336" y="105"/>
      <point x="421" y="207"/>
      <point x="451" y="310" type="qcurve"/>
      <point x="464" y="356"/>
      <point x="476" y="425"/>
      <point x="476" y="457" type="qcurve"/>
      <point x="476" y="503"/>
      <point x="436" y="550"/>
      <point x="397" y="550" type="qcurve"/>
      <point x="340" y="550"/>
      <point x="256" y="448"/>
      <point x="226" y="345" type="qcurve"/>
      <point x="213" y="299"/>
      <point x="201" y="230"/>
    </contour>
  </outline>
</glyph>
<glyph name="oogonek" format="2">
  <advance width="614"/>
  <unicode hex="01EB"/>
  <outline>
    <contour>
      <point x="77" y="-172" type="qcurve"/>
      <point x="77" y="-142"/>
      <point x="138" y="-71"/>
      <point x="212" y="-11" type="qcurve"/>
      <point x="132" y="2"/>
      <point x="39" y="111"/>
      <point x="39" y="191" type="qcurve"/>
      <point x="39" y="256"/>
      <point x="89" y="367"/>
      <point x="132" y="407" type="qcurve"/>
      <point x="174" y="447"/>
      <point x="290" y="492"/>
      <point x="356" y="492" type="qcurve"/>
      <point x="454" y="492"/>
      <point x="575" y="378"/>
      <point x="575" y="286" type="qcurve"/>
      <point x="575" y="224"/>
      <point x="530" y="117"/>
      <point x="490" y="77" type="qcurve"/>
      <point x="451" y="38"/>
      <point x="342" y="-10"/>
      <point x="279" y="-14" type="qcurve"/>
      <point x="232" y="-64"/>
      <point x="199" y="-108"/>
      <point x="199" y="-123" type="qcurve"/>
      <point x="199" y="-132"/>
      <point x="214" y="-141"/>
      <point x="233" y="-142" type="qcurve"/>
      <point x="287" y="-146" type="line"/>
      <point x="250" y="-239" type="line"/>
      <point x="178" y="-236" type="line"/>
      <point x="125" y="-234"/>
      <point x="77" y="-204"/>
    </contour>
    <contour>
      <point x="189" y="200" type="qcurve"/>
      <point x="189" y="156"/>
      <point x="241" y="104"/>
      <point x="284" y="104" type="qcurve"/>
      <point x="342" y="104"/>
      <point x="425" y="208"/>
      <point x="425" y="277" type="qcurve"/>
      <point x="425" y="321"/>
      <point x="373" y="373"/>
      <point x="330" y="373" type="qcurve"/>
      <point x="272" y="373"/>
      <point x="189" y="269"/>
    </contour>
  </outline>
</glyph>
<glyph name="dotlessj" format="2">
  <advance width="614"/>
  <unicode hex="0237"/>
  <outline>
    <contour>
      <point x="542" y="477" type="line"/>
      <point x="416" y="37" type="line"/>
      <point x="394" y="-40"/>
      <point x="340" y="-142"/>
      <point x="300" y="-172" type="qcurve"/>
      <point x="261" y="-201"/>
      <point x="148" y="-229"/>
      <point x="67" y="-232" type="qcurve"/>
      <point x="-29" y="-236" type="line"/>
      <point x="-29" y="-112" type="line"/>
      <point x="73" y="-107" type="line"/>
      <point x="119" y="-105"/>
      <point x="185" y="-89"/>
      <point x="208" y="-71" type="qcurve"/>
      <point x="231" y="-53"/>
      <point x="263" y="8"/>
      <point x="276" y="54" type="qcurve"/>
      <point x="362" y="355" type="line"/>
      <point x="145" y="355" type="line"/>
      <point x="180" y="477" type="line"/>
    </contour>
  </outline>
</glyph>
<glyph name="schwa" format="2">
  <advance width="614"/>
  <unicode hex="0259"/>
  <outline>
    <contour>
      <point x="183" y="376" type="qcurve"/>
      <point x="216" y="492" type="line"/>
      <point x="293" y="492"/>
      <point x="405" y="482"/>
      <point x="444" y="471" type="qcurve"/>
      <point x="508" y="453"/>
      <point x="567" y="377"/>
      <point x="567" y="304" type="qcurve"/>
      <point x="567" y="245"/>
      <point x="510" y="125"/>
      <point x="459" y="79" type="qcurve"/>
      <point x="411" y="34"/>
      <point x="290" y="-13"/>
      <point x="224" y="-13" type="qcurve"/>
      <point x="133" y="-13"/>
      <point x="32" y="63"/>
      <point x="32" y="131" type="qcurve"/>
      <point x="32" y="206"/>
      <point x="147" y="287"/>
      <point x="268" y="297" type="qcurve"/>
      <point x="421" y="308" type="line"/>
      <point x="421" y="309"/>
      <point x="421" y="310"/>
      <point x="421" y="312" type="qcurve"/>
      <point x="421" y="350"/>
      <point x="323" y="377"/>
    </contour>
    <contour>
      <point x="174" y="146" type="qcurve"/>
      <point x="174" y="124"/>
      <point x="210" y="100"/>
      <point x="242" y="100" type="qcurve"/>
      <point x="296" y="100"/>
      <point x="392" y="167"/>
      <point x="412" y="220" type="qcurve"/>
      <point x="268" y="204" type="line"/>
      <point x="218" y="198"/>
      <point x="174" y="172"/>
    </contour>
  </outline>
</glyph>
<glyph name="ringhalfleft" format="2">
  <advance width="614"/>
  <unicode hex="02BF"/>
  <outline>
    <contour>
      <point x="286" y="643" type="qcurve"/>
      <point x="327" y="684"/>
      <point x="463" y="725"/>
      <point x="558" y="725" type="qcurve"/>
      <point x="529" y="625" type="line"/>
      <point x="437" y="625"/>
      <point x="346" y="558"/>
      <point x="346" y="487" type="qcurve"/>
      <point x="346" y="450"/>
      <point x="406" y="415"/>
      <point x="469" y="415" type="qcurve"/>
      <point x="440" y="315" type="line"/>
      <point x="337" y="315"/>
      <point x="226" y="402"/>
      <point x="226" y="481" type="qcurve"/>
      <point x="226" y="532"/>
      <point x="256" y="613"/>
    </contour>
  </outline>
</glyph>
<glyph name="verticallinemod" format="2">
  <advance width="614"/>
  <unicode hex="02C8"/>
  <outline>
    <contour>
      <point x="508" y="715" type="line"/>
      <point x="396" y="323" type="line"/>
      <point x="268" y="323" type="line"/>
      <point x="380" y="715" type="line"/>
    </contour>
  </outline>
</glyph>
<glyph name="gravecmb" format="2">
  <unicode hex="0300"/>
  <outline>
    <contour>
      <point x="7" y="754" type="line"/>
      <point x="201" y="620" type="line"/>
      <point x="152" y="553" type="line"/>
      <point x="-55" y="668" type="line"/>
    </contour>
  </outline>
</glyph>
<glyph name="acutecmb" format="2">
  <unicode hex="0301"/>
  <outline>
    <contour>
      <point x="30" y="553" type="line"/>
      <point x="-3" y="626" type="line"/>
      <point x="267" y="756" type="line"/>
      <point x="303" y="668" type="line"/>
    </contour>
  </outline>
</glyph>
<glyph name="circumflexcmb" format="2">
  <unicode hex="0302"/>
  <outline>
    <contour>
      <point x="-50" y="553" type="line"/>
      <point x="-88" y="610" type="line"/>
      <point x="105" y="758" type="line"/>
      <point x="167" y="758" type="line"/>
      <point x="289" y="599" type="line"/>
      <point x="232" y="553" type="line"/>
      <point x="120" y="656" type="line"/>
    </contour>
  </outline>
</glyph>
<glyph name="macroncmb" format="2">
  <unicode hex="0304"/>
  <outline>
    <contour>
      <point x="273" y="593" type="line"/>
      <point x="-69" y="593" type="line"/>
      <point x="-41" y="691" type="line"/>
      <point x="301" y="691" type="line"/>
    </contour>
  </outline>
</glyph>
<glyph name="brevecmb" format="2">
  <unicode hex="0306"/>
  <outline>
    <contour>
      <point x="105" y="648" type="qcurve"/>
      <point x="144" y="648"/>
      <point x="216" y="701"/>
      <point x="249" y="755" type="qcurve"/>
      <point x="333" y="719" type="line"/>
      <point x="286" y="635"/>
      <point x="171" y="553"/>
      <point x="99" y="553" type="qcurve"/>
      <point x="26" y="553"/>
      <point x="-60" y="646"/>
      <point x="-60" y="731" type="qcurve"/>
      <point x="21" y="755" type="line"/>
      <point x="24" y="701"/>
      <point x="66" y="648"/>
    </contour>
  </outline>
</glyph>
<glyph name="dotaccentcmb" format="2">
  <unicode hex="0307"/>
  <outline>
    <contour>
      <point x="202" y="670" type="qcurve"/>
      <point x="202" y="629"/>
      <point x="148" y="573"/>
      <point x="106" y="573" type="qcurve"/>
      <point x="70" y="573"/>
      <point x="36" y="599"/>
      <point x="36" y="626" type="qcurve"/>
      <point x="36" y="667"/>
      <point x="91" y="724"/>
      <point x="132" y="724" type="qcurve"/>
      <point x="166" y="724"/>
      <point x="202" y="696"/>
    </contour>
  </outline>
</glyph>
<glyph name="hungarumlautcmb" format="2">
  <unicode hex="030B"/>
  <outline>
    <contour>
      <point x="-60" y="553" type="line"/>
      <point x="-108" y="609" type="line"/>
      <point x="74" y="757" type="line"/>
      <point x="133" y="691" type="line"/>
    </contour>
    <contour>
      <point x="189" y="553" type="line"/>
      <point x="141" y="609" type="line"/>
      <point x="323" y="757" type="line"/>
      <point x="381" y="691" type="line"/>
    </contour>
  </outline>
</glyph>
<glyph name="cedillacmb" format="2">
  <unicode hex="0327"/>
  <outline>
    <contour>
      <point x="-166" y="-107" type="line"/>
      <point x="-88" y="21" type="line"/>
      <point x="-26" y="21" type="line"/>
      <point x="-72" y="-57" type="line"/>
      <point x="-9" y="-64"/>
      <point x="51" y="-102"/>
      <point x="51" y="-135" type="qcurve"/>
      <point x="51" y="-181"/>
      <point x="-3" y="-226"/>
      <point x="-66" y="-241" type="qcurve"/>
      <point x="-99" y="-248"/>
      <point x="-185" y="-260"/>
      <point x="-241" y="-265" type="qcurve"/>
      <point x="-242" y="-201" type="line"/>
      <point x="-208" y="-198"/>
      <point x="-155" y="-193"/>
      <point x="-135" y="-190" type="qcurve"/>
      <point x="-85" y="-184"/>
      <point x="-45" y="-168"/>
      <point x="-45" y="-150" type="qcurve"/>
      <point x="-45" y="-135"/>
      <point x="-101" y="-120"/>
      <point x="-163" y="-117" type="qcurve"/>
    </contour>
  </outline>
</glyph>
<glyph name="circumflexbelowcmb" format="2">
  <unicode hex="032D"/>
  <outline>
    <contour>
      <point x="-73" y="-76" type="line"/>
      <point x="49" y="-235" type="line"/>
      <point x="-8" y="-281" type="line"/>
      <point x="-120" y="-178" type="line"/>
      <point x="-290" y="-281" type="line"/>
      <point x="-328" y="-224" type="line"/>
      <point x="-135" y="-76" type="line"/>
    </contour>
  </outline>
</glyph>
<glyph name="bahtthai" format="2">
  <advance width="614"/>
  <unicode hex="0E3F"/>
  <outline>
    <contour>
      <point x="289" y="0" type="qcurve"/>
      <point x="247" y="-142" type="line"/>
      <point x="156" y="-142" type="line"/>
      <point x="198" y="0" type="line"/>
      <point x="7" y="0" type="line"/>
      <point x="195" y="655" type="line"/>
      <point x="386" y="655" type="line"/>
      <point x="428" y="796" type="line"/>
      <point x="519" y="796" type="line"/>
      <point x="477" y="655" type="line"/>
      <point x="554" y="653"/>
      <point x="640" y="583"/>
      <point x="640" y="523" type="qcurve"/>
      <point x="640" y="449"/>
      <point x="539" y="352"/>
      <point x="442" y="333" type="qcurve"/>
      <point x="442" y="329" type="line"/>
      <point x="499" y="316"/>
      <point x="561" y="247"/>
      <point x="561" y="198" type="qcurve"/>
      <point x="561" y="102"/>
      <point x="426" y="5"/>
    </contour>
    <contour>
      <point x="484" y="490" type="qcurve"/>
      <point x="484" y="518"/>
      <point x="447" y="545"/>
      <point x="410" y="545" type="qcurve"/>
      <point x="306" y="545" type="line"/>
      <point x="260" y="384" type="line"/>
      <point x="344" y="389" type="line"/>
      <point x="414" y="393"/>
      <point x="484" y="443"/>
    </contour>
    <contour>
      <point x="417" y="204" type="qcurve"/>
      <point x="417" y="240"/>
      <point x="366" y="275"/>
      <point x="307" y="279" type="qcurve"/>
      <point x="232" y="284" type="line"/>
      <point x="181" y="109" type="line"/>
      <point x="285" y="109" type="line"/>
      <point x="350" y="109"/>
      <point x="417" y="157"/>
    </contour>
  </outline>
</glyph>
<glyph name="hcedilla" format="2">
  <advance width="614"/>
  <unicode hex="1E29"/>
  <outline>
    <contour>
      <point x="214" y="710" type="line"/>
      <point x="359" y="710" type="line"/>
      <point x="268" y="394" type="line"/>
      <point x="340" y="447"/>
      <point x="426" y="488"/>
      <point x="471" y="488" type="qcurve"/>
      <point x="523" y="488"/>
      <point x="577" y="439"/>
      <point x="577" y="391" type="qcurve"/>
      <point x="577" y="376"/>
      <point x="572" y="344"/>
      <point x="567" y="327" type="qcurve"/>
      <point x="473" y="0" type="line"/>
      <point x="328" y="0" type="line"/>
      <point x="414" y="300" type="line"/>
      <point x="416" y="306"/>
      <point x="418" y="318"/>
      <point x="418" y="324" type="qcurve"/>
      <point x="418" y="337"/>
      <point x="405" y="351"/>
      <point x="392" y="351" type="qcurve"/>
      <point x="369" y="351"/>
      <point x="298" y="306"/>
      <point x="226" y="248" type="qcurve"/>
      <point x="155" y="0" type="line"/>
      <point x="110" y="0" type="line"/>
      <point x="76" y="-57" type="line"/>
      <point x="139" y="-64"/>
      <point x="199" y="-102"/>
      <point x="199" y="-135" type="qcurve"/>
      <point x="199" y="-181"/>
      <point x="145" y="-226"/>
      <point x="82" y="-241" type="qcurve"/>
      <point x="49" y="-248"/>
      <point x="-37" y="-260"/>
      <point x="-93" y="-265" type="qcurve"/>
      <point x="-94" y="-201" type="line"/>
      <point x="-60" y="-198"/>
      <point x="-7" y="-193"/>
      <point x="13" y="-190" type="qcurve"/>
      <point x="63" y="-184"/>
      <point x="103" y="-168"/>
      <point x="103" y="-150" type="qcurve"/>
      <point x="103" y="-135"/>
      <point x="47" y="-120"/>
      <point x="-15" y="-117" type="qcurve"/>
      <point x="-18" y="-107" type="line"/>
      <point x="47" y="0" type="line"/>
      <point x="10" y="0" type="line"/>
    </contour>
  </outline>
</glyph>
<glyph name="endash" format="2">
  <advance width="614"/>
  <unicode hex="2013"/>
  <outline>
    <contour>
      <point x="70" y="204" type="line"/>
      <point x="112" y="348" type="line"/>
      <point x="566" y="348" type="line"/>
      <point x="524" y="204" type="line"/>
    </contour>
  </outline>
</glyph>
<glyph name="quotedblleft" format="2">
  <advance width="614"/>
  <unicode hex="201C"/>
  <outline>
    <contour>
      <point x="353" y="710" type="qcurve"/>
      <point x="461" y="710" type="line"/>
      <point x="461" y="708" type="line"/>
      <point x="381" y="630"/>
      <point x="294" y="503"/>
      <point x="244" y="379" type="qcurve"/>
      <point x="70" y="379" type="line"/>
      <point x="135" y="510"/>
      <point x="262" y="655"/>
    </contour>
    <contour>
      <point x="616" y="710" type="qcurve"/>
      <point x="724" y="710" type="line"/>
      <point x="724" y="708" type="line"/>
      <point x="645" y="631"/>
      <point x="558" y="505"/>
      <point x="508" y="379" type="qcurve"/>
      <point x="334" y="379" type="line"/>
      <point x="400" y="511"/>
      <point x="525" y="655"/>
    </contour>
  </outline>
</glyph>
<glyph name="quotedblright" format="2">
  <advance width="614"/>
  <unicode hex="201D"/>
  <outline>
    <contour>
      <point x="438" y="379" type="qcurve"/>
      <point x="330" y="379" type="line"/>
      <point x="330" y="381" type="line"/>
      <point x="409" y="458"/>
      <point x="497" y="584"/>
      <point x="547" y="710" type="qcurve"/>
      <point x="721" y="710" type="line"/>
      <point x="654" y="577"/>
      <point x="528" y="434"/>
    </contour>
    <contour>
      <point x="175" y="379" type="qcurve"/>
      <point x="67" y="379" type="line"/>
      <point x="67" y="381" type="line"/>
      <point x="145" y="457"/>
      <point x="232" y="582"/>
      <point x="283" y="710" type="qcurve"/>
      <point x="457" y="710" type="line"/>
      <point x="389" y="576"/>
      <point x="265" y="433"/>
    </contour>
  </outline>
</glyph>
<glyph name="daggerdbl" format="2">
  <advance width="614"/>
  <unicode hex="2021"/>
  <outline>
    <contour>
      <point x="540" y="293" type="qcurve"/>
      <point x="507" y="179" type="line"/>
      <point x="488" y="179"/>
      <point x="446" y="187"/>
      <point x="405" y="199" type="qcurve"/>
      <point x="373" y="209"/>
      <point x="341" y="216"/>
      <point x="327" y="218" type="qcurve"/>
      <point x="323" y="200"/>
      <point x="317" y="158"/>
      <point x="314" y="115" type="qcurve"/>
      <point x="311" y="67"/>
      <point x="304" y="20"/>
      <point x="298" y="0" type="qcurve"/>
      <point x="180" y="0" type="line"/>
      <point x="186" y="21"/>
      <point x="206" y="70"/>
      <point x="232" y="118" type="qcurve"/>
      <point x="253" y="160"/>
      <point x="272" y="201"/>
      <point x="278" y="219" type="qcurve"/>
      <point x="263" y="217"/>
      <point x="228" y="210"/>
      <point x="192" y="200" type="qcurve"/>
      <point x="142" y="187"/>
      <point x="94" y="179"/>
      <point x="74" y="179" type="qcurve"/>
      <point x="107" y="293" type="line"/>
      <point x="127" y="293"/>
      <point x="170" y="286"/>
      <point x="212" y="274" type="qcurve"/>
      <point x="243" y="265"/>
      <point x="275" y="258"/>
      <point x="289" y="256" type="qcurve"/>
      <point x="347" y="459" type="line"/>
      <point x="331" y="457"/>
      <point x="291" y="450"/>
      <point x="250" y="440" type="qcurve"/>
      <point x="198" y="427"/>
      <point x="147" y="419"/>
      <point x="127" y="419" type="qcurve"/>
      <point x="160" y="533" type="line"/>
      <point x="181" y="533"/>
      <point x="228" y="526"/>
      <point x="273" y="514" type="qcurve"/>
      <point x="307" y="505"/>
      <point x="342" y="498"/>
      <point x="357" y="496" type="qcurve"/>
      <point x="361" y="513"/>
      <point x="365" y="553"/>
      <point x="366" y="592" type="qcurve"/>
      <point x="368" y="641"/>
      <point x="375" y="689"/>
      <point x="381" y="710" type="qcurve"/>
      <point x="505" y="710" type="line"/>
      <point x="499" y="690"/>
      <point x="478" y="642"/>
      <point x="453" y="595" type="qcurve"/>
      <point x="432" y="554"/>
      <point x="413" y="513"/>
      <point x="407" y="496" type="qcurve"/>
      <point x="423" y="498"/>
      <point x="463" y="505"/>
      <point x="503" y="514" type="qcurve"/>
      <point x="555" y="526"/>
      <point x="604" y="533"/>
      <point x="624" y="533" type="qcurve"/>
      <point x="591" y="419" type="line"/>
      <point x="572" y="419"/>
      <point x="528" y="427"/>
      <point x="484" y="439" type="qcurve"/>
      <point x="448" y="449"/>
      <point x="411" y="457"/>
      <point x="395" y="459" type="qcurve"/>
      <point x="337" y="256" type="line"/>
      <point x="352" y="258"/>
      <point x="388" y="265"/>
      <point x="426" y="274" type="qcurve"/>
      <point x="474" y="286"/>
      <point x="521" y="293"/>
    </contour>
  </outline>
</glyph>
<glyph name="won" format="2">
  <advance width="614"/>
  <unicode hex="20A9"/>
  <outline>
    <contour>
      <point x="351" y="374" type="line"/>
      <point x="340" y="374" type="line"/>
      <point x="172" y="0" type="line"/>
      <point x="33" y="0" type="line"/>
      <point x="110" y="314" type="line"/>
      <point x="36" y="314" type="line"/>
      <point x="58" y="390" type="line"/>
      <point x="128" y="390" type="line"/>
      <point x="193" y="655" type="line"/>
      <point x="274" y="655" type="line"/>
      <point x="203" y="384" type="line"/>
      <point x="282" y="384" type="line"/>
      <point x="345" y="524" type="line"/>
      <point x="429" y="524" type="line"/>
      <point x="412" y="384" type="line"/>
      <point x="492" y="384" type="line"/>
      <point x="577" y="655" type="line"/>
      <point x="661" y="655" type="line"/>
      <point x="573" y="390" type="line"/>
      <point x="644" y="390" type="line"/>
      <point x="622" y="314" type="line"/>
      <point x="548" y="314" type="line"/>
      <point x="444" y="0" type="line"/>
      <point x="306" y="0" type="line"/>
    </contour>
    <contour>
      <point x="385" y="152" type="line"/>
      <point x="419" y="152" type="line"/>
      <point x="474" y="326" type="line"/>
      <point x="406" y="326" type="line"/>
    </contour>
    <contour>
      <point x="188" y="326" type="line"/>
      <point x="143" y="152" type="line"/>
      <point x="177" y="152" type="line"/>
      <point x="256" y="326" type="line"/>
    </contour>
  </outline>
</glyph>
<glyph name="Euro" format="2">
  <advance width="614"/>
  <unicode hex="20AC"/>
  <outline>
    <contour>
      <point x="121" y="205" type="qcurve"/>
      <point x="29" y="205" type="line"/>
      <point x="52" y="285" type="line"/>
      <point x="139" y="285" type="line"/>
      <point x="163" y="370" type="line"/>
      <point x="76" y="370" type="line"/>
      <point x="99" y="450" type="line"/>
      <point x="186" y="450" type="line"/>
      <point x="218" y="552"/>
      <point x="370" y="667"/>
      <point x="476" y="667" type="qcurve"/>
      <point x="524" y="667"/>
      <point x="611" y="656"/>
      <point x="668" y="643" type="qcurve"/>
      <point x="632" y="521" type="line"/>
      <point x="573" y="535"/>
      <point x="496" y="548"/>
      <point x="466" y="548" type="qcurve"/>
      <point x="416" y="548"/>
      <point x="348" y="497"/>
      <point x="329" y="446" type="qcurve"/>
      <point x="487" y="446" type="line"/>
      <point x="465" y="370" type="line"/>
      <point x="307" y="370" type="line"/>
      <point x="283" y="285" type="line"/>
      <point x="441" y="285" type="line"/>
      <point x="419" y="209" type="line"/>
      <point x="262" y="209" type="line"/>
      <point x="259" y="196"/>
      <point x="257" y="179"/>
      <point x="257" y="171" type="qcurve"/>
      <point x="257" y="138"/>
      <point x="298" y="104"/>
      <point x="339" y="104" type="qcurve"/>
      <point x="369" y="104"/>
      <point x="457" y="117"/>
      <point x="522" y="131" type="qcurve"/>
      <point x="487" y="5" type="line"/>
      <point x="436" y="-6"/>
      <point x="352" y="-15"/>
      <point x="309" y="-15" type="qcurve"/>
      <point x="220" y="-15"/>
      <point x="119" y="85"/>
      <point x="119" y="171" type="qcurve"/>
      <point x="119" y="177"/>
      <point x="120" y="193"/>
    </contour>
  </outline>
</glyph>
<glyph name="peso" format="2">
  <advance width="614"/>
  <unicode hex="20B1"/>
  <outline>
    <contour>
      <point x="145" y="399" type="line"/>
      <point x="68" y="399" type="line"/>
      <point x="90" y="475" type="line"/>
      <point x="166" y="475" type="line"/>
      <point x="218" y="655" type="line"/>
      <point x="401" y="655" type="line"/>
      <point x="493" y="655"/>
      <point x="595" y="561"/>
      <point x="595" y="477" type="qcurve"/>
      <point x="595" y="475" type="line"/>
      <point x="667" y="475" type="line"/>
      <point x="645" y="399" type="line"/>
      <point x="584" y="399" type="line"/>
      <point x="557" y="311"/>
      <point x="391" y="213"/>
      <point x="267" y="213" type="qcurve"/>
      <point x="236" y="213" type="line"/>
      <point x="175" y="0" type="line"/>
      <point x="30" y="0" type="line"/>
    </contour>
    <contour>
      <point x="448" y="477" type="qcurve"/>
      <point x="448" y="507"/>
      <point x="409" y="535"/>
      <point x="367" y="535" type="qcurve"/>
      <point x="328" y="535" type="line"/>
      <point x="269" y="330" type="line"/>
      <point x="304" y="330" type="line"/>
      <point x="369" y="330"/>
      <point x="448" y="412"/>
    </contour>
  </outline>
</glyph>
<glyph name="uni20B9" format="2">
  <advance width="614"/>
  <unicode hex="20B9"/>
  <outline>
    <contour>
      <point x="375" y="409" type="qcurve"/>
      <point x="109" y="409" type="line"/>
      <point x="133" y="493" type="line"/>
      <point x="400" y="493" type="line"/>
      <point x="424" y="579" type="line"/>
      <point x="158" y="579" type="line"/>
      <point x="180" y="655" type="line"/>
      <point x="678" y="655" type="line"/>
      <point x="656" y="579" type="line"/>
      <point x="568" y="579" type="line"/>
      <point x="544" y="493" type="line"/>
      <point x="631" y="493" type="line"/>
      <point x="607" y="409" type="line"/>
      <point x="520" y="409" type="line"/>
      <point x="483" y="287"/>
      <point x="373" y="201"/>
      <point x="252" y="199" type="qcurve"/>
      <point x="250" y="199" type="line"/>
      <point x="250" y="197" type="line"/>
      <point x="484" y="2" type="line"/>
      <point x="484" y="0" type="line"/>
      <point x="298" y="0" type="line"/>
      <point x="52" y="209" type="line"/>
      <point x="80" y="308" type="line"/>
      <point x="263" y="308" type="line"/>
      <point x="306" y="308"/>
      <point x="358" y="355"/>
    </contour>
  </outline>
</glyph>
<glyph name="uni20BD" format="2">
  <advance width="614"/>
  <unicode hex="20BD"/>
  <outline>
    <contour>
      <point x="64" y="117" type="line"/>
      <point x="-13" y="117" type="line"/>
      <point x="9" y="193" type="line"/>
      <point x="85" y="193" type="line"/>
      <point x="111" y="283" type="line"/>
      <point x="34" y="283" type="line"/>
      <point x="57" y="359" type="line"/>
      <point x="133" y="359" type="line"/>
      <point x="218" y="655" type="line"/>
      <point x="480" y="655" type="line"/>
      <point x="573" y="655"/>
      <point x="666" y="580"/>
      <point x="666" y="506" type="qcurve"/>
      <point x="666" y="461"/>
      <point x="638" y="388"/>
      <point x="610" y="360" type="qcurve"/>
      <point x="572" y="322"/>
      <point x="448" y="283"/>
      <point x="364" y="283" type="qcurve"/>
      <point x="253" y="283" type="line"/>
      <point x="227" y="193" type="line"/>
      <point x="414" y="193" type="line"/>
      <point x="393" y="117" type="line"/>
      <point x="206" y="117" type="line"/>
      <point x="172" y="0" type="line"/>
      <point x="30" y="0" type="line"/>
    </contour>
    <contour>
      <point x="513" y="475" type="qcurve"/>
      <point x="513" y="507"/>
      <point x="480" y="535"/>
      <point x="441" y="535" type="qcurve"/>
      <point x="326" y="535" type="line"/>
      <point x="275" y="359" type="line"/>
      <point x="358" y="359" type="line"/>
      <point x="429" y="359"/>
      <point x="513" y="422"/>
    </contour>
  </outline>
</glyph>
<glyph name="published" format="2">
  <advance width="614"/>
  <unicode hex="2117"/>
  <outline>
    <contour>
      <point x="622" y="545" type="qcurve"/>
      <point x="622" y="499"/>
      <point x="602" y="384"/>
      <point x="581" y="313" type="qcurve"/>
      <point x="524" y="115"/>
      <point x="360" y="-70"/>
      <point x="238" y="-70" type="qcurve"/>
      <point x="138" y="-70"/>
      <point x="44" y="18"/>
      <point x="44" y="110" type="qcurve"/>
      <point x="44" y="156"/>
      <point x="64" y="271"/>
      <point x="85" y="342" type="qcurve"/>
      <point x="142" y="540"/>
      <point x="306" y="725"/>
      <point x="428" y="725" type="qcurve"/>
      <point x="528" y="725"/>
      <point x="622" y="637"/>
    </contour>
    <contour>
      <point x="425" y="680" type="qcurve"/>
      <point x="323" y="680"/>
      <point x="186" y="512"/>
      <point x="133" y="327" type="qcurve"/>
      <point x="114" y="258"/>
      <point x="94" y="148"/>
      <point x="94" y="107" type="qcurve"/>
      <point x="94" y="39"/>
      <point x="165" y="-25"/>
      <point x="241" y="-25" type="qcurve"/>
      <point x="343" y="-25"/>
      <point x="480" y="143"/>
      <point x="533" y="328" type="qcurve"/>
      <point x="553" y="399"/>
      <point x="572" y="505"/>
      <point x="572" y="548" type="qcurve"/>
      <point x="572" y="616"/>
      <point x="501" y="680"/>
    </contour>
    <contour>
      <point x="171" y="105" type="line"/>
      <point x="299" y="550" type="line"/>
      <point x="392" y="550" type="line"/>
      <point x="444" y="550"/>
      <point x="495" y="506"/>
      <point x="495" y="461" type="qcurve"/>
      <point x="495" y="406"/>
      <point x="466" y="318"/>
      <point x="438" y="290" type="qcurve"/>
      <point x="415" y="267"/>
      <point x="354" y="243"/>
      <point x="319" y="243" type="qcurve"/>
      <point x="293" y="243" type="line"/>
      <point x="253" y="105" type="line"/>
    </contour>
    <contour>
      <point x="412" y="443" type="qcurve"/>
      <point x="412" y="460"/>
      <point x="394" y="474"/>
      <point x="372" y="474" type="qcurve"/>
      <point x="359" y="474" type="line"/>
      <point x="315" y="322" type="line"/>
      <point x="328" y="322" type="line"/>
      <point x="345" y="322"/>
      <point x="368" y="330"/>
      <point x="376" y="338" type="qcurve"/>
      <point x="390" y="352"/>
      <point x="412" y="420"/>
    </contour>
  </outline>
</glyph>
<glyph name="servicemark" format="2">
  <advance width="614"/>
  <unicode hex="2120"/>
  <outline>
    <contour>
      <point x="221" y="456" type="qcurve"/>
      <point x="243" y="456"/>
      <point x="263" y="471"/>
      <point x="263" y="487" type="qcurve"/>
      <point x="263" y="498"/>
      <point x="249" y="513"/>
      <point x="226" y="526" type="qcurve"/>
      <point x="203" y="539" type="line"/>
      <point x="171" y="557"/>
      <point x="145" y="595"/>
      <point x="145" y="624" type="qcurve"/>
      <point x="145" y="667"/>
      <point x="205" y="717"/>
      <point x="257" y="717" type="qcurve"/>
      <point x="281" y="717"/>
      <point x="328" y="709"/>
      <point x="364" y="697" type="qcurve"/>
      <point x="349" y="640" type="line"/>
      <point x="316" y="650"/>
      <point x="273" y="659"/>
      <point x="256" y="659" type="qcurve"/>
      <point x="233" y="659"/>
      <point x="211" y="644"/>
      <point x="211" y="628" type="qcurve"/>
      <point x="211" y="617"/>
      <point x="224" y="602"/>
      <point x="240" y="593" type="qcurve"/>
      <point x="263" y="580" type="line"/>
      <point x="303" y="557"/>
      <point x="330" y="521"/>
      <point x="330" y="491" type="qcurve"/>
      <point x="330" y="447"/>
      <point x="273" y="397"/>
      <point x="222" y="397" type="qcurve"/>
      <point x="191" y="397"/>
      <point x="126" y="410"/>
      <point x="86" y="424" type="qcurve"/>
      <point x="102" y="483" type="line"/>
      <point x="138" y="469"/>
      <point x="197" y="456"/>
    </contour>
    <contour>
      <point x="616" y="710" type="line"/>
      <point x="697" y="710" type="line"/>
      <point x="620" y="404" type="line"/>
      <point x="559" y="404" type="line"/>
      <point x="632" y="657" type="line"/>
      <point x="522" y="500" type="line"/>
      <point x="501" y="500" type="line"/>
      <point x="478" y="654" type="line"/>
      <point x="407" y="404" type="line"/>
      <point x="345" y="404" type="line"/>
      <point x="445" y="710" type="line"/>
      <point x="514" y="710" type="line"/>
      <point x="535" y="600" type="line"/>
    </contour>
  </outline>
</glyph>
<glyph name="trademark" format="2">
  <advance width="614"/>
  <unicode hex="2122"/>
  <outline>
    <contour>
      <point x="231" y="641" type="line"/>
      <point x="153" y="641" type="line"/>
      <point x="173" y="710" type="line"/>
      <point x="401" y="710" type="line"/>
      <point x="381" y="641" type="line"/>
      <point x="305" y="641" type="line"/>
      <point x="237" y="404" type="line"/>
      <point x="163" y="404" type="line"/>
    </contour>
    <contour>
      <point x="616" y="710" type="line"/>
      <point x="697" y="710" type="line"/>
      <point x="620" y="404" type="line"/>
      <point x="559" y="404" type="line"/>
      <point x="632" y="657" type="line"/>
      <point x="522" y="500" type="line"/>
      <point x="501" y="500" type="line"/>
      <point x="478" y="654" type="line"/>
      <point x="407" y="404" type="line"/>
      <point x="345" y="404" type="line"/>
      <point x="445" y="710" type="line"/>
      <point x="514" y="710" type="line"/>
      <point x="535" y="600" type="line"/>
    </contour>
  </outline>
</glyph>
<glyph name="approxequal" format="2">
  <advance width="614"/>
  <unicode hex="2248"/>
  <outline>
    <contour>
      <point x="266" y="595" type="qcurve"/>
      <point x="292" y="595"/>
      <point x="331" y="573"/>
      <point x="382" y="525" type="qcurve"/>
      <point x="420" y="489"/>
      <point x="444" y="471"/>
      <point x="454" y="471" type="qcurve"/>
      <point x="464" y="471"/>
      <point x="492" y="509"/>
      <point x="548" y="601" type="qcurve"/>
      <point x="648" y="542" type="line"/>
      <point x="584" y="427"/>
      <point x="499" y="337"/>
      <point x="447" y="337" type="qcurve"/>
      <point x="421" y="337"/>
      <point x="382" y="359"/>
      <point x="331" y="407" type="qcurve"/>
      <point x="293" y="443"/>
      <point x="269" y="461"/>
      <point x="259" y="461" type="qcurve"/>
      <point x="249" y="461"/>
      <point x="216" y="419"/>
      <point x="183" y="363" type="qcurve"/>
      <point x="83" y="422" type="line"/>
      <point x="135" y="516"/>
      <point x="215" y="595"/>
    </contour>
    <contour>
      <point x="217" y="323" type="qcurve"/>
      <point x="243" y="323"/>
      <point x="282" y="301"/>
      <point x="333" y="253" type="qcurve"/>
      <point x="371" y="217"/>
      <point x="395" y="199"/>
      <point x="405" y="199" type="qcurve"/>
      <point x="415" y="199"/>
      <point x="448" y="241"/>
      <point x="481" y="297" type="qcurve"/>
      <point x="581" y="238" type="line"/>
      <point x="529" y="144"/>
      <point x="449" y="65"/>
      <point x="398" y="65" type="qcurve"/>
      <point x="372" y="65"/>
      <point x="333" y="87"/>
      <point x="282" y="135" type="qcurve"/>
      <point x="244" y="171"/>
      <point x="220" y="189"/>
      <point x="210" y="189" type="qcurve"/>
      <point x="200" y="189"/>
      <point x="172" y="151"/>
      <point x="116" y="59" type="qcurve"/>
      <point x="16" y="118" type="line"/>
      <point x="80" y="233"/>
      <point x="165" y="323"/>
    </contour>
  </outline>
</glyph>
<glyph name="lessequal" format="2">
  <advance width="614"/>
  <unicode hex="2264"/>
  <outline>
    <contour>
      <point x="115" y="366" type="line"/>
      <point x="152" y="497" type="line"/>
      <point x="648" y="669" type="line"/>
      <point x="607" y="528" type="line"/>
      <point x="287" y="425" type="line"/>
      <point x="548" y="321" type="line"/>
      <point x="511" y="192" type="line"/>
    </contour>
    <contour>
      <point x="456" y="0" type="line"/>
      <point x="10" y="0" type="line"/>
      <point x="43" y="116" type="line"/>
      <point x="489" y="116" type="line"/>
    </contour>
  </outline>
</glyph>
<glyph name="greaterequal" format="2">
  <advance width="614"/>
  <unicode hex="2265"/>
  <outline>
    <contour>
      <point x="610" y="495" type="line"/>
      <point x="573" y="364" type="line"/>
      <point x="77" y="192" type="line"/>
      <point x="118" y="333" type="line"/>
      <point x="438" y="436" type="line"/>
      <point x="177" y="540" type="line"/>
      <point x="214" y="669" type="line"/>
    </contour>
    <contour>
      <point x="501" y="116" type="line"/>
      <point x="468" y="0" type="line"/>
      <point x="22" y="0" type="line"/>
      <point x="55" y="116" type="line"/>
    </contour>
  </outline>
</glyph>
<glyph name="acutecmb.cap" format="2">
  <outline>
    <contour>
      <point x="82" y="731" type="line"/>
      <point x="52" y="805" type="line"/>
      <point x="326" y="926" type="line"/>
      <point x="359" y="837" type="line"/>
    </contour>
  </outline>
</glyph>
<glyph name="brevegrave.cap" format="2">
  <outline>
    <contour>
      <point x="20" y="1080" type="line"/>
      <point x="249" y="989" type="line"/>
      <point x="214" y="914" type="line"/>
      <point x="-23" y="987" type="line"/>
    </contour>
    <contour>
      <point x="157" y="826" type="qcurve"/>
      <point x="200" y="826"/>
      <point x="268" y="865"/>
      <point x="293" y="903" type="qcurve"/>
      <point x="374" y="861" type="line"/>
      <point x="339" y="799"/>
      <point x="225" y="731"/>
      <point x="158" y="731" type="qcurve"/>
      <point x="78" y="731"/>
      <point x="-9" y="809"/>
      <point x="-9" y="883" type="qcurve"/>
      <point x="68" y="913" type="line"/>
      <point x="71" y="869"/>
      <point x="115" y="826"/>
    </contour>
  </outline>
</glyph>
<glyph name="brevehook.cap" format="2">
  <outline>
    <contour>
      <point x="356" y="1020" type="qcurve"/>
      <point x="356" y="977"/>
      <point x="249" y="922"/>
      <point x="130" y="903" type="qcurve"/>
      <point x="116" y="960" type="line"/>
      <point x="117" y="962" type="line"/>
      <point x="178" y="975"/>
      <point x="224" y="992"/>
      <point x="224" y="1003" type="qcurve"/>
      <point x="224" y="1012"/>
      <point x="167" y="1025"/>
      <point x="93" y="1036" type="qcurve"/>
      <point x="93" y="1038" type="line"/>
      <point x="164" y="1107" type="line"/>
      <point x="262" y="1096"/>
      <point x="356" y="1053"/>
    </contour>
    <contour>
      <point x="157" y="826" type="qcurve"/>
      <point x="200" y="826"/>
      <point x="268" y="865"/>
      <point x="293" y="903" type="qcurve"/>
      <point x="374" y="861" type="line"/>
      <point x="339" y="799"/>
      <point x="225" y="731"/>
      <point x="158" y="731" type="qcurve"/>
      <point x="78" y="731"/>
      <point x="-9" y="809"/>
      <point x="-9" y="883" type="qcurve"/>
      <point x="68" y="913" type="line"/>
      <point x="71" y="869"/>
      <point x="115" y="826"/>
    </contour>
  </outline>
</glyph>
<glyph name="brevehook" format="2">
  <outline>
    <contour>
      <point x="312" y="861" type="qcurve"/>
      <point x="312" y="816"/>
      <point x="204" y="763"/>
      <point x="75" y="742" type="qcurve"/>
      <point x="61" y="801" type="line"/>
      <point x="62" y="803" type="line"/>
      <point x="128" y="817"/>
      <point x="181" y="836"/>
      <point x="181" y="850" type="qcurve"/>
      <point x="181" y="860"/>
      <point x="122" y="876"/>
      <point x="51" y="886" type="qcurve"/>
      <point x="51" y="889" type="line"/>
      <point x="121" y="951" type="line"/>
      <point x="222" y="936"/>
      <point x="312" y="894"/>
    </contour>
    <contour>
      <point x="105" y="648" type="qcurve"/>
      <point x="145" y="648"/>
      <point x="216" y="697"/>
      <point x="247" y="745" type="qcurve"/>
      <point x="333" y="709" type="line"/>
      <point x="291" y="634"/>
      <point x="167" y="553"/>
      <point x="96" y="553" type="qcurve"/>
      <point x="20" y="553"/>
      <point x="-61" y="638"/>
      <point x="-61" y="720" type="qcurve"/>
      <point x="19" y="745" type="line"/>
      <point x="22" y="696"/>
      <point x="65" y="648"/>
    </contour>
  </outline>
</glyph>
<glyph name="brevetilde" format="2">
  <outline>
    <contour>
      <point x="114" y="945" type="qcurve"/>
      <point x="132" y="945"/>
      <point x="161" y="930"/>
      <point x="191" y="905" type="qcurve"/>
      <point x="228" y="875"/>
      <point x="239" y="869"/>
      <point x="245" y="869" type="qcurve"/>
      <point x="260" y="869"/>
      <point x="296" y="908"/>
      <point x="320" y="948" type="qcurve"/>
      <point x="391" y="915" type="line"/>
      <point x="343" y="839"/>
      <point x="277" y="776"/>
      <point x="245" y="776" type="qcurve"/>
      <point x="227" y="776"/>
      <point x="198" y="791"/>
      <point x="168" y="816" type="qcurve"/>
      <point x="131" y="846"/>
      <point x="120" y="852"/>
      <point x="114" y="852" type="qcurve"/>
      <point x="99" y="852"/>
      <point x="63" y="813"/>
      <point x="39" y="773" type="qcurve"/>
      <point x="-31" y="806" type="line"/>
      <point x="18" y="882"/>
      <point x="83" y="945"/>
    </contour>
    <contour>
      <point x="105" y="648" type="qcurve"/>
      <point x="145" y="648"/>
      <point x="216" y="697"/>
      <point x="247" y="745" type="qcurve"/>
      <point x="333" y="709" type="line"/>
      <point x="291" y="634"/>
      <point x="167" y="553"/>
      <point x="96" y="553" type="qcurve"/>
      <point x="20" y="553"/>
      <point x="-61" y="638"/>
      <point x="-61" y="720" type="qcurve"/>
      <point x="19" y="745" type="line"/>
      <point x="22" y="696"/>
      <point x="65" y="648"/>
    </contour>
  </outline>
</glyph>
<glyph name="circumflexcmb.cap" format="2">
  <outline>
    <contour>
      <point x="-16" y="731" type="line"/>
      <point x="-49" y="800" type="line"/>
      <point x="160" y="920" type="line"/>
      <point x="202" y="920" type="line"/>
      <point x="351" y="798" type="line"/>
      <point x="302" y="731" type="line"/>
      <point x="166" y="815" type="line"/>
    </contour>
  </outline>
</glyph>
<glyph name="circumflexhook.cap" format="2">
  <outline>
    <contour>
      <point x="505" y="1020" type="qcurve"/>
      <point x="505" y="977"/>
      <point x="398" y="922"/>
      <point x="279" y="903" type="qcurve"/>
      <point x="265" y="960" type="line"/>
      <point x="266" y="962" type="line"/>
      <point x="327" y="975"/>
      <point x="373" y="992"/>
      <point x="373" y="1003" type="qcurve"/>
      <point x="373" y="1012"/>
      <point x="316" y="1025"/>
      <point x="242" y="1036" type="qcurve"/>
      <point x="242" y="1038" type="line"/>
      <point x="313" y="1107" type="line"/>
      <point x="411" y="1096"/>
      <point x="505" y="1053"/>
    </contour>
    <contour>
      <point x="-17" y="731" type="line"/>
      <point x="-40" y="807" type="line"/>
      <point x="162" y="910" type="line"/>
      <point x="204" y="910" type="line"/>
      <point x="355" y="794" type="line"/>
      <point x="301" y="731" type="line"/>
      <point x="163" y="806" type="line"/>
    </contour>
  </outline>
</glyph>
<glyph name="circumflexhook" format="2">
  <outline>
    <contour>
      <point x="476" y="849" type="qcurve"/>
      <point x="476" y="804"/>
      <point x="368" y="751"/>
      <point x="239" y="730" type="qcurve"/>
      <point x="225" y="789" type="line"/>
      <point x="226" y="791" type="line"/>
      <point x="292" y="805"/>
      <point x="345" y="824"/>
      <point x="345" y="838" type="qcurve"/>
      <point x="345" y="848"/>
      <point x="286" y="864"/>
      <point x="215" y="874" type="qcurve"/>
      <point x="215" y="877" type="line"/>
      <point x="285" y="939" type="line"/>
      <point x="386" y="924"/>
      <point x="476" y="882"/>
    </contour>
    <contour>
      <point x="-51" y="553" type="line"/>
      <point x="-85" y="615" type="line"/>
      <point x="102" y="738" type="line"/>
      <point x="164" y="738" type="line"/>
      <point x="289" y="604" type="line"/>
      <point x="231" y="553" type="line"/>
      <point x="114" y="638" type="line"/>
    </contour>
  </outline>
</glyph>
<glyph name="dieresiscaron.cap" format="2">
  <outline>
    <contour>
      <point x="163" y="907" type="line"/>
      <point x="19" y="1026" type="line"/>
      <point x="64" y="1081" type="line"/>
      <point x="202" y="1006" type="line"/>
      <point x="382" y="1081" type="line"/>
      <point x="407" y="1020" type="line"/>
      <point x="205" y="907" type="line"/>
    </contour>
    <contour>
      <point x="119" y="834" type="qcurve"/>
      <point x="119" y="798"/>
      <point x="70" y="751"/>
      <point x="31" y="751" type="qcurve"/>
      <point x="-1" y="751"/>
      <point x="-36" y="775"/>
      <point x="-36" y="798" type="qcurve"/>
      <point x="-36" y="833"/>
      <point x="14" y="882"/>
      <point x="54" y="882" type="qcurve"/>
      <point x="87" y="882"/>
      <point x="119" y="858"/>
    </contour>
    <contour>
      <point x="369" y="834" type="qcurve"/>
      <point x="369" y="799"/>
      <point x="319" y="751"/>
      <point x="281" y="751" type="qcurve"/>
      <point x="248" y="751"/>
      <point x="214" y="775"/>
      <point x="214" y="798" type="qcurve"/>
      <point x="214" y="833"/>
      <point x="265" y="882"/>
      <point x="304" y="882" type="qcurve"/>
      <point x="335" y="882"/>
      <point x="369" y="857"/>
    </contour>
  </outline>
</glyph>
<glyph name="dieresiscmb.cap" format="2">
  <outline>
    <contour>
      <point x="121" y="844" type="qcurve"/>
      <point x="121" y="802"/>
      <point x="70" y="751"/>
      <point x="30" y="751" type="qcurve"/>
      <point x="0" y="751"/>
      <point x="-35" y="778"/>
      <point x="-35" y="802" type="qcurve"/>
      <point x="-35" y="840"/>
      <point x="18" y="894"/>
      <point x="57" y="894" type="qcurve"/>
      <point x="89" y="894"/>
      <point x="121" y="869"/>
    </contour>
    <contour>
      <point x="371" y="844" type="qcurve"/>
      <point x="371" y="804"/>
      <point x="319" y="751"/>
      <point x="280" y="751" type="qcurve"/>
      <point x="249" y="751"/>
      <point x="215" y="778"/>
      <point x="215" y="802" type="qcurve"/>
      <point x="215" y="840"/>
      <point x="268" y="894"/>
      <point x="307" y="894" type="qcurve"/>
      <point x="339" y="894"/>
      <point x="371" y="869"/>
    </contour>
  </outline>
</glyph>
<glyph name="dieresismacron.cap" format="2">
  <outline>
    <contour>
      <point x="375" y="952" type="line"/>
      <point x="37" y="952" type="line"/>
      <point x="66" y="1054" type="line"/>
      <point x="404" y="1054" type="line"/>
    </contour>
    <contour>
      <point x="119" y="834" type="qcurve"/>
      <point x="119" y="798"/>
      <point x="70" y="751"/>
      <point x="31" y="751" type="qcurve"/>
      <point x="-1" y="751"/>
      <point x="-36" y="775"/>
      <point x="-36" y="798" type="qcurve"/>
      <point x="-36" y="833"/>
      <point x="14" y="882"/>
      <point x="54" y="882" type="qcurve"/>
      <point x="87" y="882"/>
      <point x="119" y="858"/>
    </contour>
    <contour>
      <point x="369" y="834" type="qcurve"/>
      <point x="369" y="799"/>
      <point x="319" y="751"/>
      <point x="281" y="751" type="qcurve"/>
      <point x="248" y="751"/>
      <point x="214" y="775"/>
      <point x="214" y="798" type="qcurve"/>
      <point x="214" y="833"/>
      <point x="265" y="882"/>
      <point x="304" y="882" type="qcurve"/>
      <point x="335" y="882"/>
      <point x="369" y="857"/>
    </contour>
  </outline>
</glyph>
<glyph name="dieresismacron" format="2">
  <outline>
    <contour>
      <point x="322" y="760" type="line"/>
      <point x="-20" y="760" type="line"/>
      <point x="8" y="858" type="line"/>
      <point x="350" y="858" type="line"/>
    </contour>
    <contour>
      <point x="80" y="648" type="qcurve"/>
      <point x="80" y="616"/>
      <point x="28" y="573"/>
      <point x="-10" y="573" type="qcurve"/>
      <point x="-44" y="573"/>
      <point x="-76" y="595"/>
      <point x="-76" y="618" type="qcurve"/>
      <point x="-76" y="649"/>
      <point x="-25" y="695"/>
      <point x="15" y="695" type="qcurve"/>
      <point x="46" y="695"/>
      <point x="80" y="671"/>
    </contour>
    <contour>
      <point x="310" y="648" type="qcurve"/>
      <point x="310" y="616"/>
      <point x="259" y="573"/>
      <point x="220" y="573" type="qcurve"/>
      <point x="188" y="573"/>
      <point x="154" y="596"/>
      <point x="154" y="618" type="qcurve"/>
      <point x="154" y="650"/>
      <point x="207" y="695"/>
      <point x="245" y="695" type="qcurve"/>
      <point x="275" y="695"/>
      <point x="310" y="670"/>
    </contour>
  </outline>
</glyph>
<glyph name="dotaccentcmb.cap" format="2">
  <outline>
    <contour>
      <point x="254" y="849" type="qcurve"/>
      <point x="254" y="806"/>
      <point x="201" y="751"/>
      <point x="158" y="751" type="qcurve"/>
      <point x="122" y="751"/>
      <point x="87" y="778"/>
      <point x="87" y="805" type="qcurve"/>
      <point x="87" y="844"/>
      <point x="142" y="902"/>
      <point x="183" y="902" type="qcurve"/>
      <point x="217" y="902"/>
      <point x="254" y="875"/>
    </contour>
  </outline>
</glyph>
<glyph name="five.den" format="2">
  <advance width="614"/>
  <outline>
    <contour>
      <point x="161" y="173" type="line"/>
      <point x="232" y="380" type="line"/>
      <point x="474" y="380" type="line"/>
      <point x="454" y="305" type="line"/>
      <point x="286" y="305" type="line"/>
      <point x="259" y="229" type="line"/>
      <point x="277" y="237"/>
      <point x="314" y="244"/>
      <point x="338" y="244" type="qcurve"/>
      <point x="385" y="244"/>
      <point x="438" y="200"/>
      <point x="438" y="161" type="qcurve"/>
      <point x="438" y="85"/>
      <point x="314" y="5"/>
      <point x="184" y="-5" type="qcurve"/>
      <point x="103" y="-11" type="line"/>
      <point x="116" y="68" type="line"/>
      <point x="199" y="75" type="line"/>
      <point x="270" y="81"/>
      <point x="345" y="117"/>
      <point x="345" y="142" type="qcurve"/>
      <point x="345" y="158"/>
      <point x="323" y="175"/>
      <point x="302" y="175" type="qcurve"/>
      <point x="284" y="175"/>
      <point x="239" y="163"/>
      <point x="218" y="153" type="qcurve"/>
      <point x="161" y="170" type="line"/>
    </contour>
  </outline>
</glyph>
<glyph name="four.den" format="2">
  <advance width="614"/>
  <outline>
    <contour>
      <point x="288" y="88" type="line"/>
      <point x="116" y="88" type="line"/>
      <point x="133" y="151" type="line"/>
      <point x="362" y="380" type="line"/>
      <point x="478" y="380" type="line"/>
      <point x="403" y="161" type="line"/>
      <point x="478" y="161" type="line"/>
      <point x="457" y="88" type="line"/>
      <point x="378" y="88" type="line"/>
      <point x="348" y="0" type="line"/>
      <point x="261" y="0" type="line"/>
    </contour>
    <contour>
      <point x="316" y="152" type="line"/>
      <point x="378" y="324" type="line"/>
      <point x="210" y="155" type="line"/>
      <point x="210" y="152" type="line"/>
    </contour>
  </outline>
</glyph>
<glyph name="gravecmb.cap" format="2">
  <outline>
    <contour>
      <point x="37" y="922" type="line"/>
      <point x="246" y="799" type="line"/>
      <point x="202" y="731" type="line"/>
      <point x="-15" y="837" type="line"/>
    </contour>
  </outline>
</glyph>
<glyph name="hungarumlautcmb.cap" format="2">
  <outline>
    <contour>
      <point x="23" y="730" type="line"/>
      <point x="-27" y="793" type="line"/>
      <point x="144" y="922" type="line"/>
      <point x="200" y="850" type="line"/>
    </contour>
    <contour>
      <point x="258" y="730" type="line"/>
      <point x="208" y="793" type="line"/>
      <point x="379" y="922" type="line"/>
      <point x="435" y="850" type="line"/>
    </contour>
  </outline>
</glyph>
<glyph name="middotcat" format="2">
  <advance width="614"/>
  <outline>
    <contour>
      <point x="441" y="410" type="qcurve"/>
      <point x="441" y="348"/>
      <point x="371" y="255"/>
      <point x="323" y="255" type="qcurve"/>
      <point x="291" y="255"/>
      <point x="257" y="287"/>
      <point x="257" y="318" type="qcurve"/>
      <point x="257" y="379"/>
      <point x="325" y="472"/>
      <point x="373" y="472" type="qcurve"/>
      <point x="406" y="472"/>
      <point x="441" y="440"/>
    </contour>
  </outline>
</glyph>
<glyph name="ringcmb.cap" format="2">
  <outline>
    <contour>
      <point x="357" y="887" type="qcurve"/>
      <point x="357" y="817"/>
      <point x="251" y="731"/>
      <point x="164" y="731" type="qcurve"/>
      <point x="88" y="731"/>
      <point x="3" y="793"/>
      <point x="3" y="848" type="qcurve"/>
      <point x="3" y="918"/>
      <point x="109" y="1004"/>
      <point x="196" y="1004" type="qcurve"/>
      <point x="272" y="1004"/>
      <point x="357" y="942"/>
    </contour>
    <contour>
      <point x="103" y="853" type="qcurve"/>
      <point x="103" y="832"/>
      <point x="139" y="809"/>
      <point x="173" y="809" type="qcurve"/>
      <point x="212" y="809"/>
      <point x="257" y="849"/>
      <point x="257" y="882" type="qcurve"/>
      <point x="257" y="903"/>
      <point x="221" y="926"/>
      <point x="187" y="926" type="qcurve"/>
      <point x="148" y="926"/>
      <point x="103" y="886"/>
    </contour>
  </outline>
</glyph>
<glyph name="three.den" format="2">
  <advance width="614"/>
  <outline>
    <contour>
      <point x="358" y="303" type="line"/>
      <point x="196" y="303" type="line"/>
      <point x="220" y="380" type="line"/>
      <point x="502" y="380" type="line"/>
      <point x="502" y="339" type="line"/>
      <point x="364" y="221" type="line"/>
      <point x="364" y="220" type="line"/>
      <point x="410" y="211"/>
      <point x="452" y="172"/>
      <point x="452" y="138" type="qcurve"/>
      <point x="452" y="72"/>
      <point x="328" y="3"/>
      <point x="197" y="-5" type="qcurve"/>
      <point x="119" y="-10" type="line"/>
      <point x="133" y="73" type="line"/>
      <point x="211" y="78" type="line"/>
      <point x="281" y="83"/>
      <point x="352" y="108"/>
      <point x="352" y="129" type="qcurve"/>
      <point x="352" y="150"/>
      <point x="305" y="162"/>
      <point x="243" y="162" type="qcurve"/>
      <point x="238" y="201" type="line"/>
      <point x="358" y="300" type="line"/>
    </contour>
  </outline>
</glyph>
